<svg width="880" height="880" viewBox="0 0 880 880" fill="none" xmlns="http://www.w3.org/2000/svg">
<path d="M878.89 412.15H591.26C587.52 412.15 584.32 409.55 583.46 405.91C583.45 405.88 583.44 405.84 583.43 405.81C582.86 403.38 582.22 400.97 581.52 398.59C581.33 397.9 581.12 397.21 580.91 396.52C580.89 396.45 580.87 396.38 580.84 396.31C580.55 395.35 580.24 394.4 579.93 393.46C579.91 393.41 579.9 393.36 579.87 393.31C579.57 392.38 579.26 391.46 578.92 390.55C578.87 390.39 578.82 390.23 578.75 390.07C578.46 389.23 578.16 388.41 577.84 387.58C577.54 386.79 577.23 385.99 576.91 385.2C576.64 384.52 576.36 383.84 576.08 383.17C575.89 382.69 575.69 382.22 575.48 381.76C575.4 381.56 575.31 381.36 575.22 381.16C574.88 380.37 574.53 379.58 574.17 378.8C573.81 378 573.44 377.21 573.06 376.42C572.82 375.91 572.58 375.41 572.33 374.92C572.06 374.37 571.79 373.82 571.51 373.27C571.37 372.99 571.23 372.71 571.08 372.44C570.74 371.76 570.38 371.08 570.02 370.41C569.92 370.22 569.82 370.03 569.7 369.83C569.34 369.15 568.97 368.48 568.59 367.81C568.38 367.42 568.16 367.04 567.94 366.66C567.69 366.23 567.45 365.8 567.19 365.37C566.9 364.87 566.6 364.37 566.29 363.87C566.08 363.5 565.86 363.14 565.63 362.78C565.34 362.29 565.04 361.82 564.73 361.34C564.45 360.88 564.16 360.42 563.86 359.97C563.64 359.61 563.41 359.26 563.17 358.91C562.79 358.33 562.41 357.76 562.02 357.19C561.82 356.88 561.61 356.58 561.4 356.28C561.08 355.81 560.76 355.35 560.42 354.89C560.15 354.48 559.86 354.08 559.56 353.69C559.24 353.23 558.9 352.77 558.56 352.31C558.33 351.98 558.08 351.66 557.83 351.33C557.28 350.6 556.73 349.87 556.16 349.15C555.69 348.55 555.22 347.95 554.73 347.36C554.44 346.99 554.14 346.62 553.84 346.25C552.58 344.72 551.29 343.21 549.97 341.74C549.53 341.24 549.09 340.75 548.63 340.27C547.44 338.96 546.22 337.68 544.97 336.42C544.46 335.89 543.93 335.35 543.39 334.83C539.04 330.54 534.42 326.52 529.56 322.8C528.73 322.16 527.9 321.53 527.06 320.92C522.96 317.91 518.71 315.12 514.31 312.55C513.52 312.08 512.72 311.62 511.91 311.17C511.2 310.77 510.49 310.38 509.77 310C509.49 309.83 509.2 309.68 508.91 309.53C508.39 309.25 507.86 308.98 507.33 308.71C506.94 308.5 506.56 308.3 506.17 308.12C505.67 307.86 505.16 307.61 504.65 307.36C504.16 307.12 503.66 306.88 503.16 306.64C502.85 306.49 502.53 306.34 502.21 306.2C501.48 305.85 500.75 305.51 500.01 305.19C499.92 305.14 499.82 305.1 499.73 305.06C498.87 304.68 498.01 304.31 497.15 303.95C496.95 303.86 496.75 303.77 496.55 303.7C495.95 303.44 495.35 303.19 494.74 302.96C494.16 302.72 493.58 302.49 492.99 302.27C492.68 302.14 492.36 302.02 492.04 301.91C491.5 301.69 490.95 301.49 490.4 301.3C489.65 301.02 488.89 300.75 488.13 300.49C488.09 300.47 488.04 300.45 487.99 300.44C487.1 300.13 486.21 299.83 485.31 299.55C485.1 299.47 484.88 299.4 484.67 299.34C484.06 299.14 483.45 298.95 482.84 298.77C482.3 298.6 481.75 298.44 481.21 298.29C480.77 298.15 480.32 298.02 479.88 297.91C479.35 297.75 478.82 297.6 478.28 297.46C477.8 297.33 477.31 297.2 476.83 297.08C476.28 296.93 475.72 296.79 475.17 296.66C474.74 296.55 474.31 296.45 473.87 296.35C473.17 296.18 472.47 296.02 471.77 295.87C471.62 295.83 471.48 295.8 471.34 295.78C470.45 295.58 469.55 295.39 468.65 295.22C468.48 295.18 468.31 295.15 468.13 295.12C467.34 294.96 466.55 294.81 465.76 294.68C465.44 294.62 465.13 294.56 464.81 294.52C463.98 294.37 463.15 294.23 462.32 294.11C461.38 293.96 460.43 293.83 459.49 293.71C458.5 293.57 457.51 293.45 456.51 293.34C455.42 293.21 454.33 293.1 453.23 293.01C452.41 292.93 451.58 292.87 450.76 292.82C447.17 292.54 443.54 292.41 439.88 292.41C436.22 292.41 432.59 292.54 429 292.82C428.18 292.87 427.35 292.93 426.53 293.01C425.43 293.1 424.34 293.21 423.25 293.34C422.25 293.45 421.25 293.57 420.26 293.71C419.31 293.83 418.37 293.96 417.43 294.11C416.62 294.23 415.81 294.36 415 294.51C414.66 294.56 414.32 294.62 413.99 294.68C413.24 294.81 412.49 294.95 411.74 295.1C411.52 295.13 411.29 295.18 411.07 295.23C410.18 295.4 409.3 295.58 408.41 295.78C408.27 295.8 408.13 295.83 407.99 295.87C407.26 296.03 406.53 296.19 405.8 296.37C405.41 296.46 405.01 296.55 404.62 296.65C404.05 296.79 403.49 296.93 402.93 297.08C402.43 297.2 401.93 297.34 401.44 297.48C400.99 297.59 400.54 297.71 400.1 297.84C399.51 298 398.92 298.17 398.33 298.35C397.94 298.46 397.56 298.57 397.18 298.69C396.41 298.92 395.65 299.15 394.9 299.4C394.78 299.43 394.67 299.47 394.56 299.51C393.67 299.79 392.79 300.08 391.91 300.39C391.77 300.43 391.63 300.48 391.48 300.54C390.71 300.8 389.94 301.08 389.17 301.36C388.77 301.5 388.37 301.65 387.97 301.81C387.52 301.97 387.08 302.14 386.64 302.32C386.1 302.52 385.55 302.73 385.01 302.96C384.41 303.2 383.8 303.44 383.2 303.7C383 303.77 382.8 303.86 382.6 303.95C381.8 304.28 381 304.63 380.2 304.99C379.97 305.08 379.73 305.19 379.5 305.3C378.94 305.55 378.38 305.8 377.82 306.07C377.4 306.26 376.98 306.45 376.57 306.65C375.95 306.94 375.34 307.24 374.73 307.55C374.44 307.68 374.15 307.82 373.87 307.97C373.17 308.32 372.46 308.68 371.77 309.05C371.55 309.15 371.34 309.26 371.13 309.38C370.67 309.62 370.21 309.86 369.76 310.12C369.14 310.45 368.52 310.79 367.9 311.14C365.01 312.75 362.19 314.46 359.43 316.26C358.77 316.69 358.12 317.12 357.47 317.56C355.86 318.65 354.27 319.77 352.7 320.92C351.86 321.53 351.02 322.16 350.2 322.8C345.34 326.52 340.72 330.54 336.37 334.83C335.65 335.54 334.94 336.25 334.23 336.98C333.53 337.7 332.83 338.43 332.14 339.17C331.64 339.7 331.14 340.24 330.66 340.78C329.77 341.75 328.9 342.73 328.05 343.72C327.49 344.38 326.92 345.04 326.38 345.71C326.24 345.86 326.12 346.01 326 346.16C325.67 346.55 325.34 346.95 325.03 347.36C324.54 347.95 324.07 348.55 323.6 349.15C323.11 349.77 322.63 350.39 322.16 351.02C321.62 351.74 321.08 352.46 320.55 353.19C319.95 354.01 319.37 354.83 318.79 355.66C318.33 356.31 317.88 356.97 317.44 357.63C317.17 358.02 316.91 358.41 316.66 358.81C316.4 359.2 316.14 359.58 315.9 359.97C315.6 360.42 315.31 360.88 315.03 361.34C314.66 361.91 314.3 362.49 313.94 363.08C313.86 363.2 313.78 363.33 313.72 363.45C313.22 364.27 312.72 365.1 312.24 365.93C311.78 366.73 311.32 367.53 310.87 368.34C310.75 368.55 310.63 368.77 310.52 368.98C310.16 369.63 309.81 370.28 309.46 370.93C309.05 371.7 308.64 372.48 308.25 373.27C307.97 373.82 307.7 374.37 307.43 374.92C307.15 375.47 306.88 376.03 306.62 376.59C306.54 376.74 306.48 376.88 306.42 377.02C306.07 377.74 305.73 378.48 305.4 379.21C305.01 380.05 304.64 380.9 304.28 381.76C304.07 382.22 303.87 382.69 303.68 383.17C303.4 383.84 303.12 384.52 302.85 385.2C302.53 386 302.21 386.8 301.91 387.6C301.72 388.1 301.53 388.6 301.36 389.11C301.12 389.73 300.9 390.35 300.68 390.98C300.34 391.94 300.01 392.91 299.69 393.89C299.4 394.76 299.12 395.64 298.85 396.52C298.64 397.21 298.43 397.9 298.24 398.59C297.54 400.97 296.9 403.38 296.33 405.81C296.32 405.84 296.31 405.88 296.3 405.91C295.44 409.55 292.24 412.15 288.5 412.15H0.850098C15.1601 182.13 206.24 0 439.87 0C673.5 0 864.58 182.13 878.89 412.15Z" fill="#FF0000"/>
<path d="M879.04 464.98C874.17 551.71 844.16 631.73 796.17 697.87C794.19 700.6 792.19 703.29 790.16 705.97C789.39 706.97 788.63 707.97 787.86 708.97C786.31 710.96 784.75 712.93 783.18 714.9C782.39 715.89 781.6 716.87 780.8 717.84C779.83 719.03 778.86 720.21 777.87 721.39C777.71 721.6 777.54 721.81 777.35 722.01C776.36 723.2 775.36 724.38 774.35 725.56C773.26 726.84 772.16 728.11 771.06 729.37C769.95 730.64 768.84 731.89 767.72 733.14C766.32 734.72 764.9 736.29 763.45 737.84C762.63 738.73 761.81 739.62 760.99 740.5C760.92 740.59 760.84 740.67 760.75 740.75C759.66 741.91 758.57 743.07 757.47 744.21C756.35 745.38 755.23 746.54 754.1 747.7C752.61 749.23 751.1 750.74 749.58 752.23C748.67 753.14 747.76 754.04 746.84 754.93C739.64 761.96 732.19 768.74 724.52 775.25C723.37 776.22 722.22 777.19 721.06 778.15C720.19 778.89 719.32 779.61 718.44 780.31C717.67 780.96 716.9 781.59 716.12 782.21C714.93 783.18 713.73 784.14 712.52 785.09C711.31 786.04 710.1 786.99 708.88 787.93C707.86 788.72 706.84 789.51 705.81 790.29C705.27 790.71 704.72 791.12 704.17 791.53C703.22 792.25 702.26 792.96 701.3 793.67C700.99 793.91 700.67 794.15 700.34 794.37C699.3 795.15 698.26 795.91 697.21 796.66C696.96 796.85 696.7 797.04 696.45 797.21C695.23 798.09 694 798.96 692.77 799.83C692.68 799.9 692.58 799.97 692.48 800.04C691.29 800.87 690.09 801.71 688.89 802.53C688.58 802.75 688.26 802.97 687.93 803.19C686.74 804.01 685.54 804.82 684.34 805.62C683.09 806.46 681.83 807.29 680.57 808.12C679.33 808.93 678.09 809.74 676.84 810.54C675.81 811.2 674.77 811.86 673.73 812.51C665.84 817.48 657.77 822.2 649.54 826.67C647.98 827.52 646.42 828.35 644.85 829.18C643.49 829.9 642.13 830.61 640.76 831.31C639.59 831.91 638.43 832.5 637.26 833.09C636.25 833.6 635.24 834.11 634.22 834.6C633.01 835.21 631.79 835.8 630.58 836.38C629.09 837.1 627.61 837.81 626.11 838.5C624.07 839.46 622.02 840.4 619.96 841.32C618.9 841.8 617.84 842.27 616.78 842.74C615.9 843.13 615.02 843.51 614.13 843.89C612.84 844.45 611.54 845.01 610.23 845.55C609.15 846.01 608.07 846.46 606.98 846.9C606.25 847.21 605.52 847.51 604.78 847.8C604.11 848.07 603.45 848.34 602.78 848.6C601.78 849.01 600.78 849.4 599.77 849.79C598.36 850.35 596.94 850.89 595.52 851.42C594.43 851.84 593.34 852.25 592.24 852.65C591.57 852.9 590.9 853.15 590.23 853.39C589.49 853.66 588.76 853.93 588.02 854.18C586.91 854.59 585.8 854.98 584.69 855.36C584.47 855.44 584.25 855.52 584.02 855.59C582.62 856.08 581.22 856.56 579.81 857.03C579.55 857.12 579.28 857.21 579.01 857.29C577.68 857.74 576.34 858.18 575.01 858.61C574.64 858.73 574.26 858.85 573.89 858.97C572.54 859.4 571.18 859.83 569.82 860.25C568.19 860.75 566.55 861.25 564.91 861.73C563.37 862.19 561.84 862.63 560.29 863.07C558.55 863.57 556.81 864.05 555.06 864.52C548.28 866.36 541.44 868.04 534.53 869.54C533.61 869.75 532.68 869.95 531.75 870.14C530.8 870.35 529.84 870.55 528.88 870.74C528.51 870.83 528.13 870.9 527.75 870.97C526.26 871.28 524.77 871.58 523.28 871.86C523.1 871.9 522.91 871.93 522.73 871.97C521.18 872.26 519.63 872.55 518.08 872.83C517.75 872.89 517.42 872.95 517.09 873C515.52 873.28 513.94 873.55 512.37 873.81C512.31 873.82 512.26 873.83 512.2 873.84C510.57 874.11 508.94 874.37 507.3 874.62C506.96 874.68 506.61 874.73 506.27 874.78C504.76 875.01 503.24 875.23 501.72 875.44C501.46 875.48 501.21 875.52 500.95 875.55C499.71 875.73 498.47 875.89 497.23 876.05C496.12 876.2 495.01 876.34 493.9 876.47C493.42 876.53 492.94 876.59 492.45 876.64C491.41 876.77 490.37 876.9 489.32 877C488.42 877.11 487.51 877.21 486.61 877.3C485.47 877.43 484.33 877.54 483.18 877.65C482.74 877.7 482.29 877.74 481.85 877.78C480.76 877.89 479.66 877.99 478.56 878.08C477.53 878.17 476.5 878.26 475.47 878.33C474.45 878.42 473.43 878.5 472.41 878.57C472.06 878.6 471.72 878.62 471.37 878.64C470.04 878.74 468.71 878.83 467.38 878.91C466.51 878.97 465.63 879.02 464.76 879.06C463.79 879.12 462.83 879.17 461.86 879.22C459.13 879.35 456.4 879.46 453.66 879.54C452.7 879.58 451.74 879.6 450.79 879.63H450.71C447.11 879.72 443.5 879.76 439.88 879.76H439.83C437.95 879.76 436.06 879.75 434.18 879.72C432.45 879.7 430.72 879.67 429 879.63C427.93 879.6 426.87 879.57 425.8 879.53C423.19 879.46 420.58 879.35 417.98 879.22C416.85 879.17 415.73 879.11 414.6 879.04C413.9 879.01 413.19 878.96 412.49 878.92C410.92 878.82 409.36 878.72 407.8 878.6C407.71 878.6 407.63 878.6 407.54 878.59C406.35 878.5 405.16 878.41 403.98 878.31C403.11 878.25 402.24 878.17 401.37 878.1C399.99 877.98 398.62 877.85 397.25 877.71C397.12 877.71 397 877.71 396.87 877.68C395.51 877.55 394.16 877.41 392.81 877.26C392.12 877.2 391.42 877.12 390.73 877.04C389.38 876.89 388.03 876.74 386.68 876.57C386.54 876.56 386.41 876.54 386.27 876.52C384.92 876.36 383.57 876.19 382.23 876.01C381.27 875.89 380.31 875.76 379.35 875.62C378.77 875.55 378.18 875.47 377.6 875.38C376.37 875.21 375.13 875.03 373.9 874.84C373.33 874.76 372.76 874.67 372.19 874.58C370.84 874.38 369.49 874.16 368.14 873.93C367.76 873.88 367.37 873.81 366.99 873.74C365.79 873.55 364.59 873.35 363.39 873.13C362.68 873.01 361.98 872.88 361.28 872.76C360.21 872.57 359.14 872.37 358.08 872.16C357.41 872.05 356.75 871.92 356.09 871.79C355.07 871.6 354.05 871.4 353.04 871.18C352.15 871.01 351.25 870.83 350.36 870.64C350.06 870.58 349.76 870.52 349.46 870.45C347.98 870.15 346.5 869.83 345.02 869.5C343.32 869.13 341.63 868.75 339.94 868.36C338.25 867.96 336.56 867.56 334.88 867.15C328.15 865.5 321.48 863.7 314.88 861.74C311.57 860.77 308.29 859.75 305.02 858.7C303.39 858.17 301.75 857.64 300.13 857.09C298.5 856.55 296.88 856 295.26 855.43C293.87 854.95 292.49 854.46 291.1 853.96C290.73 853.83 290.36 853.7 289.99 853.56C288.82 853.14 287.65 852.71 286.48 852.27C285.99 852.09 285.5 851.91 285.01 851.72C283.78 851.26 282.55 850.79 281.32 850.31C281.04 850.21 280.76 850.1 280.48 849.99C279.11 849.45 277.74 848.91 276.37 848.36C276.16 848.29 275.95 848.2 275.74 848.11C274.46 847.6 273.18 847.08 271.91 846.55C271.47 846.37 271.03 846.19 270.59 846C269.29 845.46 268 844.91 266.71 844.36C266.64 844.34 266.58 844.31 266.52 844.28C265.1 843.67 263.68 843.05 262.27 842.43C261.96 842.3 261.65 842.16 261.34 842.01C259.99 841.41 258.64 840.81 257.3 840.19C255.79 839.5 254.28 838.8 252.78 838.1C252.62 838.03 252.46 837.96 252.31 837.88C250.98 837.25 249.65 836.61 248.33 835.97C248.07 835.85 247.8 835.72 247.54 835.59C246.2 834.94 244.86 834.28 243.53 833.61C240.63 832.16 237.75 830.68 234.89 829.18C230.27 826.74 225.7 824.23 221.18 821.62C219.71 820.78 218.25 819.93 216.8 819.08C213.89 817.36 211.01 815.62 208.14 813.84C206.71 812.95 205.29 812.05 203.87 811.15C202.45 810.24 201.03 809.33 199.62 808.41C198.21 807.49 196.81 806.56 195.41 805.62C194.01 804.68 192.62 803.74 191.23 802.79C189.84 801.84 188.46 800.88 187.09 799.91C185.71 798.94 184.34 797.97 182.98 796.98C181.62 796 180.26 795.01 178.91 794.01C177.6 793.04 176.29 792.07 174.99 791.09C174.9 791.03 174.81 790.96 174.72 790.88C172.09 788.89 169.48 786.88 166.9 784.83C165.63 783.82 164.36 782.8 163.09 781.77C162.95 781.67 162.81 781.56 162.67 781.44C161.47 780.46 160.27 779.47 159.08 778.48C156.5 776.35 153.94 774.18 151.41 771.97C148.88 769.78 146.37 767.54 143.89 765.28C142.96 764.43 142.03 763.58 141.11 762.73C140.51 762.17 139.92 761.62 139.32 761.05C138.72 760.49 138.13 759.93 137.53 759.36C137.47 759.31 137.41 759.26 137.35 759.2C137.23 759.08 137.1 758.97 136.98 758.85C136.23 758.13 135.48 757.41 134.73 756.69H134.72C134.11 756.11 133.51 755.53 132.91 754.94C131.71 753.76 130.52 752.59 129.33 751.41L125.79 747.84C123.44 745.44 121.12 743.02 118.83 740.57C117.68 739.35 116.54 738.12 115.41 736.88C110.88 731.93 106.46 726.88 102.16 721.73C100.38 719.59 98.6202 717.45 96.8802 715.28C96.0702 714.26 95.2702 713.25 94.4702 712.24C94.4702 712.24 94.4102 712.16 94.3802 712.12C94.0002 711.63 93.6102 711.14 93.2302 710.65C92.8402 710.16 92.4602 709.67 92.0802 709.18C91.9502 709.02 91.8302 708.87 91.7102 708.71C91.3302 708.22 90.9502 707.73 90.5902 707.24C90.1402 706.67 89.7002 706.09 89.2602 705.51C89.2302 705.48 89.2102 705.44 89.1902 705.41C88.9102 705.05 88.6402 704.69 88.3702 704.32C88.1002 703.97 87.8302 703.61 87.5602 703.25C87.4302 703.07 87.3002 702.89 87.1602 702.71C87.0502 702.57 86.9502 702.42 86.8402 702.28C86.7902 702.22 86.7302 702.15 86.6802 702.08C86.6802 702.07 86.6802 702.07 86.6802 702.06C86.2702 701.51 85.8602 700.96 85.4602 700.4C85.0502 699.85 84.6402 699.29 84.2302 698.73C84.2302 698.73 84.2302 698.723 84.2302 698.71C83.4202 697.6 82.6202 696.49 81.8202 695.38C81.8202 695.36 81.7902 695.34 81.7802 695.32C80.3602 693.34 78.9602 691.34 77.5802 689.34C77.4702 689.17 77.3502 689 77.2302 688.83C75.9702 686.99 74.7202 685.14 73.4802 683.28C73.0902 682.7 72.7102 682.12 72.3302 681.54C72.0402 681.1 71.7502 680.66 71.4702 680.22C70.8002 679.21 70.1402 678.19 69.4902 677.17C69.4902 677.17 69.4902 677.17 69.4902 677.15C68.9202 676.27 68.3602 675.39 67.8002 674.51C67.7102 674.36 67.6202 674.21 67.5202 674.06C66.8902 673.06 66.2702 672.06 65.6402 671.05C65.6202 671.01 65.5902 670.97 65.5602 670.92C64.9302 669.89 64.3002 668.86 63.6702 667.83C63.5802 667.68 63.4902 667.54 63.4002 667.39C63.1802 667.02 62.9602 666.66 62.7402 666.29C62.4202 665.76 62.1002 665.22 61.7802 664.69C61.0902 663.53 60.4102 662.37 59.7302 661.21C59.4302 660.7 59.1302 660.18 58.8302 659.66C58.8302 659.65 58.8302 659.64 58.8102 659.63C58.7302 659.5 58.6602 659.37 58.5902 659.23C58.5302 659.14 58.4702 659.05 58.4302 658.95C58.2502 658.65 58.0802 658.35 57.9102 658.05C57.3602 657.09 56.8102 656.13 56.2702 655.16C55.6702 654.09 55.0702 653.02 54.4802 651.95C53.9802 651.03 53.4802 650.12 52.9702 649.2C52.8902 649.04 52.8102 648.88 52.7202 648.73C51.5402 646.54 50.3802 644.35 49.2302 642.14C21.3802 588.58 4.2802 528.59 0.700195 464.98H287.88C291.68 464.98 294.91 467.66 295.72 471.37C296.17 473.44 296.66 475.5 297.2 477.54C297.47 478.56 297.75 479.58 298.04 480.59C298.3 481.52 298.58 482.45 298.87 483.38C298.89 483.48 298.92 483.57 298.96 483.66C298.99 483.75 299.02 483.85 299.05 483.94C299.27 484.7 299.52 485.45 299.77 486.2C299.82 486.36 299.87 486.52 299.93 486.68C300.14 487.32 300.35 487.95 300.58 488.57C300.72 489 300.87 489.43 301.03 489.86C301.2 490.34 301.37 490.81 301.56 491.29C301.76 491.87 301.99 492.46 302.22 493.04C302.23 493.06 302.23 493.08 302.24 493.1C302.32 493.32 302.4 493.53 302.5 493.75C302.5 493.78 302.53 493.82 302.54 493.85C302.78 494.5 303.04 495.14 303.3 495.78C303.31 495.78 303.31 495.81 303.32 495.82C303.49 496.23 303.66 496.64 303.83 497.05C303.88 497.17 303.93 497.28 303.98 497.4C304.16 497.83 304.35 498.27 304.53 498.69C304.55 498.73 304.56 498.77 304.58 498.81C304.81 499.33 305.04 499.85 305.28 500.37C305.44 500.75 305.61 501.12 305.79 501.49C306.02 502.01 306.26 502.53 306.51 503.04C306.63 503.29 306.74 503.53 306.86 503.77C306.97 504.02 307.09 504.27 307.22 504.51C307.39 504.88 307.57 505.24 307.75 505.6C307.9 505.91 308.05 506.21 308.21 506.52C308.36 506.83 308.52 507.13 308.68 507.43C308.9 507.86 309.12 508.29 309.36 508.72C309.51 509.01 309.66 509.3 309.82 509.59C310.08 510.09 310.34 510.58 310.62 511.06C310.65 511.11 310.68 511.17 310.71 511.22C311.04 511.83 311.38 512.44 311.73 513.04C311.75 513.08 311.77 513.11 311.79 513.15C311.89 513.35 312 513.54 312.12 513.73C312.53 514.44 312.94 515.14 313.37 515.84C313.52 516.11 313.68 516.38 313.85 516.64C313.89 516.7 313.92 516.76 313.96 516.82C314.26 517.32 314.57 517.81 314.88 518.3C314.89 518.3 314.89 518.32 314.9 518.33C315.13 518.71 315.37 519.08 315.61 519.45C315.9 519.91 316.19 520.36 316.49 520.81C316.82 521.32 317.16 521.82 317.5 522.32C317.68 522.61 317.87 522.89 318.08 523.17C318.1 523.19 318.11 523.22 318.12 523.24C318.42 523.68 318.72 524.12 319.04 524.55C319.07 524.6 319.1 524.65 319.14 524.7C319.44 525.14 319.75 525.58 320.08 526.02C320.1 526.05 320.13 526.09 320.15 526.12C320.4 526.48 320.66 526.84 320.93 527.19C321.25 527.64 321.59 528.09 321.94 528.54C322.05 528.71 322.18 528.87 322.3 529.03C322.4 529.18 322.51 529.32 322.62 529.45C322.65 529.49 322.69 529.54 322.72 529.58C323.2 530.21 323.68 530.83 324.18 531.45C324.31 531.64 324.46 531.82 324.61 532C324.61 532 324.617 532.007 324.63 532.02C325.12 532.64 325.62 533.26 326.13 533.87C326.18 533.93 326.24 534 326.29 534.06C326.38 534.18 326.47 534.29 326.57 534.39C326.85 534.73 327.13 535.06 327.4 535.39L328.54 536.71C328.8 537.01 329.06 537.31 329.33 537.61C329.59 537.91 329.87 538.21 330.14 538.51C330.47 538.89 330.81 539.27 331.15 539.64C331.6 540.13 332.05 540.61 332.51 541.09C332.6 541.19 332.7 541.3 332.8 541.4C333.07 541.69 333.34 541.97 333.61 542.25C333.89 542.54 334.16 542.82 334.44 543.1C334.44 543.1 334.447 543.107 334.46 543.12C334.73 543.39 335 543.67 335.28 543.95C335.55 544.23 335.83 544.5 336.11 544.77C336.23 544.91 336.37 545.04 336.51 545.17C336.97 545.64 337.44 546.09 337.92 546.55C340.08 548.61 342.3 550.62 344.59 552.55C345.28 553.14 345.97 553.71 346.67 554.28C346.69 554.3 346.71 554.32 346.73 554.33C347.36 554.85 347.99 555.35 348.63 555.85C348.99 556.14 349.36 556.43 349.73 556.71C349.81 556.77 349.88 556.83 349.96 556.89C350.07 556.98 350.19 557.07 350.31 557.15C350.78 557.52 351.25 557.88 351.73 558.23C351.87 558.33 352.01 558.44 352.15 558.54C352.77 559.01 353.39 559.46 354.02 559.91C354.78 560.46 355.56 561 356.34 561.54C356.41 561.59 356.49 561.65 356.58 561.7C356.69 561.78 356.81 561.86 356.92 561.93C357.64 562.43 358.37 562.91 359.1 563.39C359.84 563.88 360.58 564.36 361.33 564.83C361.49 564.93 361.65 565.04 361.82 565.14C362.6 565.63 363.39 566.11 364.19 566.58C364.25 566.62 364.31 566.66 364.37 566.69C365.05 567.1 365.73 567.5 366.42 567.89C366.69 568.05 366.96 568.21 367.23 568.36C367.76 568.66 368.29 568.96 368.82 569.24C369.27 569.5 369.72 569.74 370.17 569.98C370.53 570.18 370.9 570.37 371.27 570.56C371.82 570.86 372.37 571.14 372.93 571.43C373.33 571.63 373.74 571.84 374.15 572.04C374.7 572.32 375.27 572.6 375.83 572.86C376.63 573.25 377.44 573.63 378.25 574C378.34 574.04 378.42 574.08 378.51 574.12C379.05 574.37 379.59 574.62 380.13 574.86C380.23 574.9 380.33 574.95 380.43 574.99C380.8 575.16 381.18 575.32 381.56 575.48C381.95 575.65 382.34 575.82 382.73 575.98C382.75 575.99 382.78 576 382.8 576.01C383.31 576.23 383.81 576.44 384.33 576.64C384.37 576.66 384.41 576.67 384.45 576.69C384.94 576.89 385.42 577.08 385.91 577.27C386 577.3 386.09 577.34 386.18 577.37C386.49 577.5 386.81 577.63 387.12 577.74C387.74 577.98 388.35 578.21 388.97 578.43C389.3 578.56 389.64 578.69 389.98 578.8C390.01 578.8 390.05 578.82 390.08 578.84C390.74 579.08 391.41 579.31 392.07 579.54C392.51 579.69 392.96 579.84 393.41 579.98C393.79 580.12 394.18 580.25 394.57 580.36C395.31 580.61 396.06 580.85 396.81 581.07C397.11 581.17 397.42 581.26 397.73 581.34C398.17 581.48 398.6 581.61 399.05 581.73C399.08 581.74 399.12 581.75 399.15 581.76C399.81 581.96 400.48 582.14 401.15 582.32C401.23 582.34 401.31 582.36 401.39 582.38C401.52 582.42 401.66 582.45 401.79 582.49C402.4 582.66 403.01 582.82 403.62 582.96C403.73 582.99 403.83 583.01 403.94 583.04C404.53 583.2 405.12 583.34 405.72 583.48C406.29 583.62 406.86 583.75 407.43 583.87C407.74 583.95 408.04 584.02 408.35 584.07C408.42 584.09 408.49 584.1 408.56 584.12C409.22 584.27 409.88 584.41 410.55 584.54C410.9 584.61 411.25 584.68 411.6 584.74C411.69 584.76 411.78 584.78 411.87 584.79C412.52 584.93 413.17 585.05 413.82 585.16C414.08 585.21 414.35 585.26 414.62 585.3C415.34 585.43 416.06 585.55 416.79 585.66C417.03 585.7 417.26 585.74 417.5 585.77C418.16 585.87 418.81 585.97 419.47 586.06C419.55 586.07 419.64 586.08 419.72 586.09C420.08 586.14 420.45 586.19 420.81 586.24C421.43 586.32 422.05 586.39 422.67 586.46C422.82 586.48 422.97 586.5 423.13 586.52C423.58 586.57 424.03 586.62 424.49 586.66C425.04 586.73 425.6 586.78 426.16 586.83C426.23 586.83 426.31 586.83 426.39 586.85C427.44 586.95 428.49 587.03 429.55 587.1C430.51 587.17 431.47 587.23 432.44 587.27C432.53 587.28 432.63 587.29 432.72 587.29H432.81C433.26 587.31 433.7 587.33 434.15 587.35C434.27 587.35 434.38 587.36 434.5 587.36C435.19 587.39 435.88 587.41 436.57 587.42C437.67 587.45 438.78 587.46 439.88 587.46C440.98 587.46 442.09 587.46 443.18 587.42C443.88 587.42 444.57 587.39 445.26 587.36C445.38 587.36 445.5 587.35 445.62 587.35C446.06 587.33 446.51 587.31 446.95 587.29H447.04C447.13 587.29 447.23 587.29 447.32 587.27C448.29 587.23 449.25 587.17 450.21 587.1C451.27 587.03 452.32 586.95 453.37 586.85C453.45 586.84 453.52 586.84 453.6 586.83C454.16 586.78 454.72 586.73 455.27 586.66C455.72 586.62 456.18 586.57 456.63 586.52C456.78 586.5 456.94 586.48 457.09 586.46C457.71 586.39 458.33 586.32 458.95 586.24C459.31 586.19 459.68 586.14 460.04 586.09C461 585.96 461.95 585.82 462.9 585.67C463.68 585.55 464.45 585.42 465.22 585.28C465.46 585.25 465.7 585.21 465.94 585.16C466.68 585.03 467.42 584.89 468.16 584.74C468.51 584.68 468.86 584.61 469.21 584.54C469.89 584.41 470.58 584.26 471.26 584.11C471.65 584.03 472.04 583.94 472.43 583.85C472.96 583.74 473.49 583.61 474.02 583.48C474.39 583.4 474.76 583.31 475.13 583.22C475.32 583.17 475.52 583.12 475.71 583.07C475.73 583.06 475.76 583.06 475.78 583.05C476.28 582.94 476.77 582.81 477.27 582.67C477.34 582.65 477.42 582.63 477.49 582.61C477.82 582.54 478.15 582.45 478.47 582.35C479.2 582.16 479.92 581.96 480.65 581.75C481.04 581.64 481.43 581.53 481.81 581.41C482.29 581.27 482.77 581.13 483.24 580.98C483.58 580.88 483.92 580.77 484.25 580.67C484.49 580.59 484.73 580.51 484.97 580.43C485.04 580.41 485.1 580.39 485.17 580.37C485.7 580.21 486.21 580.04 486.73 579.86C486.75 579.85 486.76 579.85 486.78 579.84C487.01 579.77 487.24 579.69 487.47 579.61C488.29 579.33 489.11 579.05 489.92 578.75C490.17 578.67 490.41 578.58 490.66 578.48C491.32 578.24 491.98 578 492.63 577.74C492.88 577.65 493.13 577.55 493.38 577.45C493.44 577.43 493.51 577.4 493.57 577.37C494.21 577.13 494.85 576.88 495.48 576.62C495.52 576.62 495.55 576.59 495.59 576.58C495.97 576.42 496.36 576.26 496.73 576.1C496.73 576.1 496.75 576.09 496.76 576.09C497.35 575.85 497.93 575.6 498.51 575.34C498.79 575.23 499.06 575.11 499.34 574.98C500.05 574.67 500.75 574.36 501.45 574.03C502.27 573.66 503.09 573.27 503.9 572.88C504.37 572.65 504.84 572.42 505.31 572.19C505.87 571.91 506.43 571.63 506.98 571.35C507 571.34 507.01 571.33 507.03 571.32C507.83 570.92 508.62 570.5 509.4 570.08C509.86 569.83 510.32 569.58 510.77 569.33C511.37 569.01 511.96 568.68 512.55 568.35C512.81 568.2 513.08 568.05 513.34 567.89C514.01 567.51 514.67 567.12 515.33 566.73C515.5 566.63 515.66 566.53 515.82 566.43C516.53 566.01 517.23 565.58 517.92 565.15C518.13 565.02 518.34 564.89 518.55 564.74C519.26 564.3 519.96 563.85 520.66 563.39C521.39 562.91 522.12 562.43 522.84 561.93C522.95 561.86 523.07 561.78 523.18 561.7C523.26 561.65 523.34 561.59 523.42 561.54C524.2 561 524.97 560.46 525.74 559.91C526.57 559.31 527.4 558.71 528.22 558.09C528.76 557.69 529.29 557.28 529.82 556.87C530.31 556.5 530.79 556.12 531.27 555.74C531.99 555.18 532.7 554.6 533.41 554.01C534.49 553.13 535.56 552.23 536.61 551.31C537.12 550.87 537.63 550.43 538.13 549.98C538.87 549.32 539.6 548.65 540.33 547.97C540.63 547.7 540.92 547.42 541.22 547.13C541.83 546.56 542.44 545.98 543.04 545.38C543.81 544.64 544.57 543.88 545.31 543.11C545.59 542.82 545.86 542.54 546.14 542.25C546.41 541.97 546.68 541.69 546.95 541.4C547.42 540.9 547.89 540.4 548.35 539.9C548.78 539.44 549.2 538.98 549.61 538.51C549.88 538.21 550.16 537.91 550.42 537.61C550.69 537.31 550.95 537.01 551.21 536.71L552.35 535.39C552.62 535.06 552.9 534.73 553.18 534.39C553.28 534.29 553.37 534.18 553.46 534.06C553.51 534 553.57 533.93 553.62 533.87C554.13 533.26 554.63 532.64 555.12 532.02C555.12 532.02 555.127 532.013 555.14 532C555.29 531.82 555.43 531.64 555.57 531.45C556.07 530.83 556.55 530.21 557.03 529.58C557.06 529.54 557.1 529.49 557.13 529.45C557.24 529.32 557.35 529.18 557.45 529.03C557.57 528.87 557.7 528.71 557.81 528.54C558.16 528.09 558.5 527.64 558.82 527.19C559.09 526.84 559.35 526.48 559.6 526.12C559.62 526.09 559.65 526.05 559.67 526.02C560 525.58 560.31 525.14 560.61 524.7C560.65 524.65 560.68 524.6 560.71 524.55C561.03 524.12 561.33 523.68 561.63 523.24C561.63 523.22 561.65 523.19 561.67 523.17C561.87 522.89 562.07 522.61 562.25 522.32C562.59 521.82 562.93 521.32 563.26 520.81C563.56 520.36 563.85 519.91 564.14 519.45C564.38 519.08 564.62 518.71 564.85 518.33C564.85 518.33 564.85 518.31 564.87 518.3C565.18 517.81 565.49 517.32 565.79 516.82C565.83 516.76 565.86 516.7 565.9 516.64C566.06 516.38 566.22 516.11 566.38 515.84C566.81 515.14 567.22 514.44 567.63 513.73C567.74 513.54 567.85 513.34 567.96 513.15C567.98 513.11 568 513.08 568.02 513.04C568.37 512.44 568.71 511.83 569.04 511.22C569.07 511.17 569.1 511.11 569.13 511.06C569.41 510.58 569.67 510.09 569.93 509.59C570.09 509.3 570.24 509.01 570.39 508.72C570.63 508.29 570.85 507.86 571.07 507.43C571.23 507.13 571.39 506.83 571.54 506.52C571.7 506.21 571.85 505.91 572 505.6C572.18 505.24 572.36 504.88 572.53 504.51C572.66 504.27 572.78 504.02 572.89 503.77C573.01 503.53 573.12 503.29 573.24 503.04C573.49 502.53 573.73 502.01 573.96 501.49C574.14 501.12 574.31 500.75 574.47 500.37C574.71 499.85 574.94 499.33 575.17 498.81C575.19 498.77 575.2 498.73 575.22 498.69C575.4 498.27 575.59 497.83 575.77 497.4C575.82 497.28 575.87 497.17 575.92 497.05C576.09 496.64 576.26 496.23 576.43 495.82C576.43 495.81 576.43 495.79 576.45 495.78C576.71 495.14 576.97 494.5 577.21 493.85C577.22 493.82 577.24 493.78 577.25 493.75C577.35 493.53 577.43 493.32 577.51 493.1C577.51 493.08 577.51 493.06 577.53 493.04C577.76 492.46 577.99 491.87 578.19 491.29C578.38 490.81 578.55 490.34 578.72 489.86C578.88 489.43 579.03 489 579.17 488.57C579.4 487.95 579.61 487.32 579.82 486.68C579.88 486.52 579.93 486.36 579.98 486.2C580.23 485.45 580.48 484.7 580.7 483.94C580.73 483.85 580.76 483.75 580.79 483.66C580.83 483.57 580.86 483.48 580.88 483.38C581.17 482.45 581.45 481.52 581.71 480.59C582 479.58 582.28 478.56 582.55 477.54C583.09 475.5 583.58 473.44 584.03 471.37C584.84 467.66 588.07 464.98 591.87 464.98H879.03H879.04Z" fill="white"/>
<path d="M878.9 412.15H591.27C587.53 412.15 584.33 409.55 583.47 405.91C583.46 405.88 583.45 405.84 583.44 405.81C582.87 403.38 582.23 400.97 581.53 398.59C581.34 397.9 581.13 397.21 580.92 396.52C580.9 396.45 580.88 396.38 580.85 396.31C580.56 395.35 580.25 394.4 579.94 393.46C579.92 393.41 579.91 393.36 579.88 393.31C579.58 392.38 579.27 391.46 578.93 390.55C578.88 390.39 578.83 390.23 578.76 390.07C578.47 389.23 578.17 388.41 577.85 387.58C577.55 386.79 577.24 385.99 576.92 385.2C576.65 384.52 576.37 383.84 576.09 383.17C575.9 382.69 575.7 382.22 575.49 381.76C575.41 381.56 575.32 381.36 575.23 381.16C574.89 380.37 574.54 379.58 574.18 378.8C573.82 378 573.45 377.21 573.07 376.42C572.83 375.91 572.59 375.41 572.34 374.92C572.07 374.37 571.8 373.82 571.52 373.27C571.38 372.99 571.24 372.71 571.09 372.44C570.75 371.76 570.39 371.08 570.03 370.41C569.93 370.22 569.83 370.03 569.71 369.83C569.35 369.15 568.98 368.48 568.6 367.81C568.39 367.42 568.17 367.04 567.95 366.66C567.71 366.23 567.46 365.8 567.2 365.37C566.91 364.87 566.61 364.37 566.3 363.87C566.09 363.5 565.87 363.14 565.64 362.78C565.35 362.29 565.05 361.82 564.74 361.34C564.46 360.88 564.17 360.42 563.87 359.97C563.65 359.61 563.42 359.26 563.18 358.91C562.8 358.33 562.42 357.76 562.03 357.19C561.83 356.88 561.62 356.58 561.41 356.28C561.09 355.81 560.77 355.35 560.43 354.89C560.16 354.48 559.87 354.08 559.57 353.69C559.25 353.23 558.91 352.77 558.57 352.31C558.34 351.98 558.09 351.66 557.84 351.33C557.29 350.6 556.74 349.87 556.17 349.15C555.7 348.55 555.23 347.95 554.74 347.36C554.45 346.99 554.15 346.62 553.85 346.25C552.59 344.72 551.3 343.21 549.98 341.74C549.54 341.24 549.1 340.75 548.64 340.27C547.45 338.96 546.23 337.68 544.98 336.42C544.47 335.89 543.94 335.35 543.4 334.83C539.05 330.54 534.43 326.52 529.57 322.8C528.74 322.16 527.91 321.53 527.07 320.92C522.97 317.91 518.72 315.12 514.32 312.55C513.53 312.08 512.73 311.62 511.92 311.17C511.21 310.77 510.5 310.38 509.78 310C509.5 309.83 509.21 309.68 508.92 309.53C508.4 309.25 507.87 308.98 507.34 308.71C506.95 308.5 506.57 308.3 506.18 308.12C505.68 307.86 505.17 307.61 504.66 307.36C504.17 307.12 503.67 306.88 503.17 306.64C502.86 306.49 502.54 306.34 502.22 306.2C501.49 305.85 500.76 305.51 500.02 305.19C499.93 305.14 499.83 305.1 499.74 305.06C498.88 304.68 498.02 304.31 497.16 303.95C496.96 303.86 496.76 303.77 496.56 303.7C495.96 303.44 495.36 303.19 494.75 302.96C494.17 302.72 493.59 302.49 493 302.27C492.69 302.14 492.37 302.02 492.05 301.91C491.51 301.69 490.96 301.49 490.41 301.3C489.66 301.02 488.9 300.75 488.14 300.49C488.1 300.47 488.05 300.45 488 300.44C487.11 300.13 486.22 299.83 485.32 299.55C485.11 299.47 484.89 299.4 484.68 299.34C484.07 299.14 483.46 298.95 482.85 298.77C482.31 298.6 481.76 298.44 481.22 298.29C480.78 298.15 480.33 298.02 479.89 297.91C479.36 297.75 478.83 297.6 478.29 297.46C477.81 297.33 477.32 297.2 476.84 297.08C476.29 296.93 475.73 296.79 475.18 296.66C474.75 296.55 474.32 296.45 473.88 296.35C473.18 296.18 472.48 296.02 471.78 295.87C471.63 295.83 471.49 295.8 471.35 295.78C470.46 295.58 469.56 295.39 468.66 295.22C468.49 295.18 468.32 295.15 468.14 295.12C467.35 294.96 466.56 294.81 465.77 294.68C465.45 294.62 465.14 294.56 464.82 294.52C463.99 294.37 463.16 294.23 462.33 294.11C461.39 293.96 460.44 293.83 459.5 293.71C458.51 293.57 457.52 293.45 456.52 293.34C455.43 293.21 454.34 293.1 453.24 293.01C452.42 292.93 451.59 292.87 450.77 292.82C447.18 292.54 443.55 292.41 439.89 292.41C436.23 292.41 432.6 292.54 429.01 292.82C428.19 292.87 427.36 292.93 426.54 293.01C425.44 293.1 424.35 293.21 423.26 293.34C422.26 293.45 421.26 293.57 420.27 293.71C419.32 293.83 418.38 293.96 417.44 294.11C416.63 294.23 415.82 294.36 415.01 294.51C414.67 294.56 414.33 294.62 414 294.68C413.25 294.81 412.5 294.95 411.75 295.1C411.53 295.13 411.3 295.18 411.08 295.23C410.19 295.4 409.31 295.58 408.42 295.78C408.28 295.8 408.14 295.83 408 295.87C407.27 296.03 406.54 296.19 405.81 296.37C405.42 296.46 405.02 296.55 404.63 296.65C404.06 296.79 403.5 296.93 402.94 297.08C402.44 297.2 401.94 297.34 401.45 297.48C401 297.59 400.55 297.71 400.11 297.84C399.52 298 398.93 298.17 398.34 298.35C397.95 298.46 397.57 298.57 397.19 298.69C396.42 298.92 395.66 299.15 394.91 299.4C394.79 299.43 394.68 299.47 394.57 299.51C393.68 299.79 392.8 300.08 391.92 300.39C391.78 300.43 391.64 300.48 391.49 300.54C390.72 300.8 389.95 301.08 389.18 301.36C388.78 301.5 388.38 301.65 387.98 301.81C387.53 301.97 387.09 302.14 386.65 302.32C386.11 302.52 385.56 302.73 385.02 302.96C384.42 303.2 383.81 303.44 383.21 303.7C383.01 303.77 382.81 303.86 382.61 303.95C381.81 304.28 381.01 304.63 380.21 304.99C379.98 305.08 379.74 305.19 379.51 305.3C378.95 305.55 378.39 305.8 377.83 306.07C377.41 306.26 376.99 306.45 376.58 306.65C375.96 306.94 375.35 307.24 374.74 307.55C374.45 307.68 374.16 307.82 373.88 307.97C373.17 308.32 372.47 308.68 371.78 309.05C371.56 309.15 371.35 309.26 371.14 309.38C370.68 309.62 370.22 309.86 369.77 310.12C369.15 310.45 368.53 310.79 367.91 311.14C365.02 312.75 362.2 314.46 359.44 316.26C358.78 316.69 358.13 317.12 357.48 317.56C355.87 318.65 354.28 319.77 352.71 320.92C351.87 321.53 351.03 322.16 350.21 322.8C345.35 326.52 340.73 330.54 336.38 334.83C335.66 335.54 334.95 336.25 334.24 336.98C333.54 337.7 332.84 338.43 332.15 339.17C331.65 339.7 331.15 340.24 330.67 340.78C329.78 341.75 328.91 342.73 328.06 343.72C327.5 344.38 326.93 345.04 326.39 345.71C326.25 345.86 326.13 346.01 326.01 346.16C325.68 346.55 325.35 346.95 325.04 347.36C324.55 347.95 324.08 348.55 323.61 349.15C323.12 349.77 322.64 350.39 322.17 351.02C321.63 351.74 321.09 352.46 320.56 353.19C319.96 354.01 319.38 354.83 318.8 355.66C318.34 356.31 317.89 356.97 317.45 357.63C317.18 358.02 316.92 358.41 316.67 358.81C316.41 359.2 316.15 359.58 315.91 359.97C315.61 360.42 315.32 360.88 315.04 361.34C314.67 361.91 314.31 362.49 313.95 363.08C313.87 363.2 313.79 363.33 313.73 363.45C313.23 364.27 312.73 365.1 312.25 365.93C311.79 366.73 311.33 367.53 310.88 368.34C310.76 368.55 310.64 368.77 310.53 368.98C310.17 369.63 309.82 370.28 309.47 370.93C309.06 371.7 308.65 372.48 308.26 373.27C307.98 373.82 307.71 374.37 307.44 374.92C307.16 375.47 306.89 376.03 306.63 376.59C306.55 376.74 306.49 376.88 306.43 377.02C306.08 377.74 305.74 378.48 305.41 379.21C305.02 380.05 304.65 380.9 304.29 381.76C304.08 382.22 303.88 382.69 303.69 383.17C303.41 383.84 303.13 384.52 302.86 385.2C302.54 386 302.22 386.8 301.92 387.6C301.73 388.1 301.54 388.6 301.37 389.11C301.13 389.73 300.91 390.35 300.69 390.98C300.35 391.94 300.02 392.91 299.7 393.89C299.41 394.76 299.13 395.64 298.86 396.52C298.65 397.21 298.44 397.9 298.25 398.59C297.55 400.97 296.91 403.38 296.34 405.81C296.33 405.84 296.32 405.88 296.31 405.91C295.45 409.55 292.25 412.15 288.51 412.15H0.86C0.29 421.32 0 430.57 0 439.88C0 448.3 0.24 456.67 0.71 464.98H287.89C291.69 464.98 294.92 467.66 295.73 471.37C296.18 473.44 296.67 475.5 297.21 477.54C297.48 478.56 297.76 479.58 298.05 480.59C298.31 481.52 298.59 482.45 298.88 483.38C298.9 483.48 298.93 483.57 298.97 483.66C299 483.75 299.03 483.85 299.06 483.94C299.28 484.7 299.53 485.45 299.78 486.2C299.83 486.36 299.88 486.52 299.94 486.68C300.15 487.32 300.36 487.95 300.59 488.57C300.73 489 300.88 489.43 301.04 489.86C301.21 490.34 301.38 490.81 301.57 491.29C301.78 491.88 302 492.46 302.23 493.04C302.24 493.06 302.24 493.08 302.25 493.1C302.33 493.32 302.41 493.53 302.51 493.75C302.51 493.78 302.54 493.82 302.55 493.85C302.79 494.5 303.05 495.14 303.31 495.78C303.32 495.78 303.32 495.81 303.33 495.82C303.5 496.23 303.67 496.64 303.84 497.05C303.89 497.17 303.94 497.28 303.99 497.4C304.17 497.83 304.36 498.27 304.54 498.69C304.56 498.73 304.57 498.77 304.59 498.81C304.82 499.33 305.05 499.85 305.29 500.37C305.45 500.75 305.62 501.12 305.8 501.49C306.03 502.01 306.27 502.53 306.52 503.04C306.64 503.29 306.75 503.53 306.87 503.77C306.98 504.02 307.1 504.27 307.23 504.51C307.4 504.88 307.58 505.24 307.76 505.6C307.91 505.91 308.06 506.21 308.22 506.52C308.37 506.83 308.53 507.13 308.69 507.43C308.91 507.86 309.13 508.29 309.37 508.72C309.52 509.01 309.67 509.3 309.83 509.59C310.09 510.09 310.35 510.58 310.63 511.06C310.66 511.11 310.69 511.17 310.72 511.22C311.05 511.83 311.39 512.44 311.74 513.04C311.76 513.08 311.78 513.11 311.8 513.15C311.9 513.35 312.01 513.54 312.13 513.73C312.54 514.44 312.95 515.14 313.38 515.84C313.53 516.11 313.69 516.38 313.86 516.64C313.9 516.7 313.93 516.76 313.97 516.82C314.27 517.32 314.58 517.81 314.89 518.3C314.9 518.3 314.9 518.32 314.91 518.33C315.14 518.71 315.38 519.08 315.62 519.45C315.91 519.91 316.2 520.36 316.5 520.81C316.83 521.32 317.17 521.82 317.51 522.32C317.69 522.61 317.88 522.89 318.09 523.17C318.11 523.19 318.12 523.22 318.13 523.24C318.43 523.68 318.73 524.12 319.05 524.55C319.08 524.6 319.11 524.65 319.15 524.7C319.46 525.15 319.77 525.58 320.09 526.02C320.11 526.05 320.14 526.09 320.16 526.12C320.41 526.48 320.67 526.84 320.94 527.19C321.27 527.64 321.61 528.09 321.95 528.54C322.06 528.71 322.19 528.87 322.31 529.03C322.41 529.18 322.52 529.32 322.63 529.45C322.66 529.49 322.7 529.54 322.73 529.58C323.21 530.21 323.69 530.83 324.19 531.45C324.32 531.64 324.47 531.82 324.62 532C324.62 532 324.627 532.007 324.64 532.02C325.13 532.64 325.63 533.26 326.14 533.87C326.19 533.93 326.25 534 326.3 534.06C326.39 534.18 326.48 534.29 326.58 534.39C326.86 534.73 327.14 535.06 327.41 535.39L328.55 536.71C328.81 537.01 329.07 537.31 329.34 537.61C329.6 537.91 329.88 538.21 330.15 538.51C330.48 538.89 330.82 539.27 331.16 539.64C331.61 540.13 332.06 540.61 332.52 541.09C332.61 541.19 332.71 541.3 332.81 541.4C333.08 541.69 333.35 541.97 333.62 542.25C333.9 542.54 334.17 542.82 334.45 543.1C334.45 543.1 334.457 543.107 334.47 543.12C334.74 543.39 335.01 543.67 335.29 543.95C335.56 544.23 335.84 544.5 336.12 544.77C336.24 544.91 336.38 545.04 336.52 545.17C336.98 545.64 337.45 546.09 337.93 546.55C340.09 548.61 342.31 550.62 344.6 552.55C345.29 553.14 345.98 553.71 346.68 554.28C346.7 554.3 346.72 554.32 346.74 554.33C347.37 554.85 348 555.35 348.64 555.85C349 556.14 349.37 556.43 349.74 556.71C349.82 556.77 349.89 556.83 349.97 556.89C350.08 556.98 350.2 557.07 350.32 557.15C350.79 557.52 351.26 557.88 351.74 558.23C351.88 558.33 352.02 558.44 352.16 558.54C352.78 559.01 353.4 559.46 354.03 559.91C354.79 560.46 355.57 561 356.35 561.54C356.42 561.59 356.5 561.65 356.59 561.7C356.7 561.78 356.82 561.86 356.93 561.93C357.65 562.43 358.38 562.91 359.11 563.39C359.85 563.88 360.59 564.36 361.34 564.83C361.5 564.93 361.66 565.04 361.83 565.14C362.61 565.63 363.4 566.11 364.2 566.58C364.26 566.62 364.32 566.66 364.38 566.69C365.06 567.1 365.74 567.5 366.43 567.89C366.7 568.05 366.97 568.21 367.24 568.36C367.77 568.66 368.3 568.96 368.83 569.24C369.28 569.5 369.73 569.74 370.18 569.98C370.54 570.18 370.91 570.37 371.28 570.56C371.83 570.86 372.38 571.14 372.94 571.43C373.34 571.63 373.75 571.84 374.16 572.04C374.71 572.32 375.28 572.6 375.84 572.86C376.64 573.25 377.45 573.63 378.26 574C378.35 574.04 378.43 574.08 378.52 574.12C379.06 574.37 379.6 574.62 380.14 574.86C380.24 574.9 380.34 574.95 380.44 574.99C380.81 575.16 381.19 575.32 381.57 575.48C381.96 575.65 382.35 575.82 382.74 575.98C382.76 575.99 382.79 576 382.81 576.01C383.32 576.23 383.82 576.44 384.34 576.64C384.38 576.66 384.42 576.67 384.46 576.69C384.95 576.89 385.43 577.08 385.92 577.27C386.01 577.3 386.1 577.34 386.19 577.37C386.5 577.5 386.82 577.63 387.13 577.74C387.75 577.98 388.36 578.21 388.98 578.43C389.31 578.56 389.65 578.69 389.99 578.8C390.02 578.8 390.06 578.82 390.09 578.84C390.75 579.08 391.42 579.31 392.08 579.54C392.52 579.69 392.97 579.84 393.42 579.98C393.8 580.12 394.19 580.25 394.58 580.36C395.32 580.61 396.07 580.85 396.82 581.07C397.12 581.17 397.43 581.26 397.74 581.34C398.18 581.48 398.61 581.61 399.06 581.73C399.09 581.74 399.13 581.75 399.16 581.76C399.82 581.96 400.49 582.14 401.16 582.32C401.24 582.34 401.32 582.36 401.4 582.38C401.53 582.42 401.67 582.45 401.8 582.49C402.41 582.66 403.02 582.82 403.63 582.96C403.74 582.99 403.84 583.01 403.95 583.04C404.54 583.2 405.13 583.34 405.73 583.48C406.3 583.62 406.87 583.75 407.44 583.87C407.75 583.95 408.05 584.02 408.36 584.07C408.43 584.09 408.5 584.1 408.57 584.12C409.23 584.27 409.89 584.41 410.56 584.54C410.91 584.61 411.26 584.68 411.61 584.74C411.7 584.76 411.79 584.78 411.88 584.79C412.53 584.93 413.18 585.05 413.83 585.16C414.09 585.21 414.36 585.26 414.63 585.3C415.35 585.43 416.07 585.55 416.8 585.66C417.04 585.7 417.27 585.74 417.51 585.77C418.17 585.87 418.82 585.97 419.48 586.06C419.56 586.07 419.65 586.08 419.73 586.09C420.09 586.14 420.46 586.19 420.82 586.24C421.44 586.32 422.06 586.39 422.68 586.46C422.83 586.48 422.98 586.5 423.14 586.52C423.59 586.57 424.04 586.62 424.5 586.66C425.05 586.73 425.61 586.78 426.17 586.83C426.24 586.83 426.32 586.83 426.4 586.85C427.45 586.95 428.5 587.03 429.56 587.1C430.52 587.17 431.48 587.23 432.45 587.27C432.54 587.28 432.64 587.29 432.73 587.29H432.82C433.27 587.31 433.71 587.33 434.16 587.35C434.28 587.35 434.39 587.36 434.51 587.36C435.2 587.39 435.89 587.41 436.58 587.42C437.68 587.45 438.79 587.46 439.89 587.46C440.99 587.46 442.1 587.46 443.19 587.42C443.89 587.42 444.58 587.39 445.27 587.36C445.39 587.36 445.51 587.35 445.63 587.35C446.07 587.33 446.52 587.31 446.96 587.29H447.05C447.14 587.29 447.24 587.29 447.33 587.27C448.3 587.23 449.26 587.17 450.22 587.1C451.28 587.03 452.33 586.95 453.38 586.85C453.46 586.84 453.53 586.84 453.61 586.83C454.17 586.78 454.73 586.73 455.28 586.66C455.73 586.62 456.19 586.57 456.64 586.52C456.79 586.5 456.95 586.48 457.1 586.46C457.72 586.39 458.34 586.32 458.96 586.24C459.32 586.19 459.69 586.14 460.05 586.09C461.01 585.96 461.96 585.82 462.91 585.67C463.69 585.55 464.46 585.42 465.23 585.28C465.47 585.25 465.71 585.21 465.95 585.16C466.69 585.03 467.43 584.89 468.17 584.74C468.52 584.68 468.87 584.61 469.22 584.54C469.9 584.41 470.59 584.26 471.27 584.11C471.66 584.03 472.05 583.94 472.44 583.85C472.97 583.74 473.5 583.61 474.03 583.48C474.4 583.4 474.77 583.31 475.14 583.22C475.33 583.17 475.53 583.12 475.72 583.07C475.74 583.06 475.77 583.06 475.79 583.05C476.29 582.94 476.78 582.81 477.28 582.67C477.35 582.65 477.43 582.63 477.5 582.61C477.83 582.54 478.16 582.45 478.48 582.35C479.21 582.16 479.93 581.96 480.66 581.75C481.05 581.64 481.44 581.53 481.82 581.41C482.3 581.27 482.78 581.13 483.25 580.98C483.59 580.88 483.93 580.77 484.26 580.67C484.5 580.59 484.74 580.51 484.98 580.43C485.05 580.41 485.11 580.39 485.18 580.37C485.71 580.21 486.22 580.04 486.74 579.86C486.76 579.85 486.77 579.85 486.79 579.84C487.02 579.77 487.25 579.69 487.48 579.61C488.3 579.33 489.12 579.05 489.93 578.75C490.18 578.67 490.42 578.58 490.67 578.48C491.33 578.24 491.99 578 492.64 577.74C492.89 577.65 493.14 577.55 493.39 577.45C493.45 577.43 493.52 577.4 493.58 577.37C494.22 577.13 494.86 576.88 495.49 576.62C495.53 576.62 495.56 576.59 495.6 576.58C495.98 576.42 496.37 576.26 496.74 576.1C496.74 576.1 496.76 576.09 496.77 576.09C497.36 575.85 497.94 575.6 498.52 575.34C498.8 575.23 499.07 575.11 499.35 574.98C500.06 574.67 500.76 574.36 501.46 574.03C502.28 573.66 503.1 573.27 503.91 572.88C504.38 572.65 504.85 572.42 505.32 572.19C505.88 571.91 506.44 571.63 506.99 571.35C507.01 571.34 507.02 571.33 507.04 571.32C507.84 570.92 508.63 570.5 509.41 570.08C509.87 569.83 510.33 569.58 510.78 569.33C511.38 569.01 511.97 568.68 512.56 568.35C512.82 568.2 513.09 568.05 513.35 567.89C514.02 567.51 514.68 567.12 515.34 566.73C515.51 566.63 515.67 566.53 515.83 566.43C516.54 566.01 517.24 565.58 517.93 565.15C518.14 565.02 518.35 564.89 518.56 564.74C519.27 564.3 519.97 563.85 520.67 563.39C521.4 562.91 522.13 562.43 522.85 561.93C522.96 561.86 523.08 561.78 523.19 561.7C523.27 561.65 523.35 561.59 523.43 561.54C524.21 561 524.98 560.46 525.75 559.91C526.58 559.31 527.41 558.71 528.23 558.09C528.77 557.69 529.3 557.28 529.83 556.87C530.32 556.5 530.8 556.12 531.28 555.74C532 555.17 532.71 554.6 533.42 554.01C534.5 553.13 535.57 552.23 536.62 551.31C537.13 550.87 537.64 550.43 538.14 549.98C538.88 549.32 539.61 548.65 540.34 547.97C540.64 547.7 540.93 547.42 541.23 547.13C541.84 546.56 542.45 545.97 543.05 545.38C543.81 544.63 544.57 543.88 545.32 543.11C545.6 542.82 545.87 542.54 546.15 542.25C546.42 541.97 546.69 541.69 546.96 541.4C547.43 540.9 547.9 540.4 548.36 539.9C548.79 539.44 549.21 538.98 549.62 538.51C549.89 538.21 550.17 537.91 550.43 537.61C550.7 537.31 550.96 537.01 551.22 536.71L552.36 535.39C552.63 535.06 552.91 534.73 553.19 534.39C553.29 534.29 553.38 534.18 553.47 534.06C553.52 534 553.58 533.93 553.63 533.87C554.14 533.26 554.64 532.64 555.13 532.02C555.13 532.02 555.137 532.013 555.15 532C555.3 531.82 555.44 531.64 555.58 531.45C556.08 530.83 556.56 530.21 557.04 529.58C557.07 529.54 557.11 529.49 557.14 529.45C557.25 529.32 557.36 529.18 557.46 529.03C557.58 528.87 557.71 528.71 557.82 528.54C558.16 528.09 558.5 527.64 558.83 527.19C559.1 526.84 559.36 526.48 559.61 526.12C559.63 526.09 559.66 526.05 559.68 526.02C560 525.58 560.31 525.15 560.62 524.7C560.66 524.65 560.69 524.6 560.72 524.55C561.04 524.12 561.34 523.68 561.64 523.24C561.64 523.22 561.66 523.19 561.68 523.17C561.88 522.89 562.08 522.61 562.26 522.32C562.6 521.82 562.94 521.32 563.27 520.81C563.57 520.36 563.86 519.91 564.15 519.45C564.39 519.08 564.63 518.71 564.86 518.33C564.86 518.33 564.86 518.31 564.88 518.3C565.19 517.81 565.5 517.32 565.8 516.82C565.84 516.76 565.87 516.7 565.91 516.64C566.07 516.38 566.23 516.11 566.39 515.84C566.82 515.14 567.23 514.44 567.64 513.73C567.75 513.54 567.86 513.34 567.97 513.15C567.99 513.11 568.01 513.08 568.03 513.04C568.38 512.44 568.72 511.83 569.05 511.22C569.08 511.17 569.11 511.11 569.14 511.06C569.42 510.58 569.68 510.09 569.94 509.59C570.1 509.3 570.25 509.01 570.4 508.72C570.64 508.29 570.86 507.86 571.08 507.43C571.24 507.13 571.4 506.83 571.55 506.52C571.71 506.21 571.86 505.91 572.01 505.6C572.19 505.24 572.37 504.88 572.54 504.51C572.67 504.27 572.79 504.02 572.9 503.77C573.02 503.53 573.13 503.29 573.25 503.04C573.5 502.53 573.74 502.01 573.97 501.49C574.15 501.12 574.32 500.75 574.48 500.37C574.72 499.85 574.95 499.33 575.18 498.81C575.2 498.77 575.21 498.73 575.23 498.69C575.41 498.27 575.6 497.83 575.78 497.4C575.83 497.28 575.88 497.17 575.93 497.05C576.1 496.64 576.27 496.23 576.44 495.82C576.44 495.81 576.44 495.79 576.46 495.78C576.72 495.14 576.98 494.5 577.22 493.85C577.23 493.82 577.25 493.78 577.26 493.75C577.36 493.53 577.44 493.32 577.52 493.1C577.52 493.08 577.52 493.06 577.54 493.04C577.77 492.46 577.99 491.88 578.2 491.29C578.39 490.81 578.56 490.34 578.73 489.86C578.89 489.43 579.04 489 579.18 488.57C579.41 487.95 579.62 487.32 579.83 486.68C579.89 486.52 579.94 486.36 579.99 486.2C580.24 485.45 580.49 484.7 580.71 483.94C580.74 483.85 580.77 483.75 580.8 483.66C580.84 483.57 580.87 483.48 580.89 483.38C581.18 482.45 581.46 481.52 581.72 480.59C582.01 479.58 582.29 478.56 582.56 477.54C583.1 475.5 583.59 473.44 584.04 471.37C584.85 467.66 588.08 464.98 591.88 464.98H879.04C879.51 456.67 879.75 448.3 879.75 439.88C879.75 430.57 879.46 421.32 878.89 412.15H878.9ZM543.35 464.98C532.1 511.68 490.05 546.37 439.89 546.37C389.73 546.37 347.68 511.68 336.42 464.98C334.48 456.95 333.45 448.56 333.45 439.94C333.45 430.33 334.72 421.01 337.12 412.15C349.34 366.84 390.72 333.5 439.89 333.5C489.06 333.5 530.43 366.84 542.65 412.15C545.05 421.01 546.32 430.33 546.32 439.94C546.32 448.56 545.29 456.95 543.35 464.98Z" fill="black"/>
<path d="M542.2 412.06C529.98 366.75 488.61 333.41 439.44 333.41C390.27 333.41 348.89 366.75 336.67 412.06C334.27 420.92 333 430.24 333 439.85C333 448.47 334.03 456.86 335.97 464.89C347.23 511.59 389.28 546.28 439.44 546.28C489.6 546.28 531.65 511.59 542.9 464.89C544.84 456.86 545.87 448.47 545.87 439.85C545.87 430.24 544.6 420.92 542.2 412.06Z" fill="white"/>
<path d="M510.91 439.37C510.91 445.12 510.22 450.71 508.93 456.06C508.24 458.91 507.38 461.7 506.36 464.41C496.24 491.24 470.33 510.32 439.96 510.32C409.59 510.32 383.66 491.24 373.55 464.41C372.53 461.7 371.67 458.91 370.98 456.06C369.68 450.71 369 445.12 369 439.37C369 432.96 369.84 426.75 371.44 420.84C372.3 417.66 373.37 414.57 374.65 411.58C385.46 386.2 410.63 368.41 439.96 368.41C469.29 368.41 494.44 386.2 505.25 411.58C506.54 414.57 507.61 417.66 508.47 420.84C510.06 426.75 510.91 432.96 510.91 439.37Z" fill="white"/>
<path d="M510.91 439.37C510.91 445.12 510.22 450.71 508.93 456.06C508.24 458.91 507.38 461.7 506.36 464.41C496.24 491.24 470.33 510.32 439.96 510.32C409.59 510.32 383.66 491.24 373.55 464.41C372.53 461.7 371.67 458.91 370.98 456.06C369.68 450.71 369 445.12 369 439.37C369 432.96 369.84 426.75 371.44 420.84C372.3 417.66 373.37 414.57 374.65 411.58C385.46 386.2 410.63 368.41 439.96 368.41C469.29 368.41 494.44 386.2 505.25 411.58C506.54 414.57 507.61 417.66 508.47 420.84C510.06 426.75 510.91 432.96 510.91 439.37Z" fill="url(#paint0_radial_392_2545)"/>
<defs>
<radialGradient id="paint0_radial_392_2545" cx="0" cy="0" r="1" gradientUnits="userSpaceOnUse" gradientTransform="translate(439.96 439.37) scale(70.96)">
<stop stop-color="white"/>
<stop offset="0.59" stop-color="white"/>
<stop offset="0.68" stop-color="white"/>
<stop offset="0.69" stop-color="#FDFDFD"/>
<stop offset="0.7" stop-color="#CCCCCC"/>
<stop offset="0.74" stop-color="#CDCDCD" stop-opacity="0.9604"/>
<stop offset="0.78" stop-color="#D0D0D0" stop-opacity="0.8281"/>
<stop offset="0.83" stop-color="#D6D6D6" stop-opacity="0.64"/>
<stop offset="0.87" stop-color="#DEDEDE" stop-opacity="0.4225"/>
<stop offset="0.92" stop-color="#E8E8E8" stop-opacity="0.2025"/>
<stop offset="0.96" stop-color="#F4F4F4" stop-opacity="0.0441"/>
<stop offset="1" stop-color="white" stop-opacity="0"/>
</radialGradient>
</defs>
</svg>
