<svg width="881" height="880" viewBox="0 0 881 880" fill="none" xmlns="http://www.w3.org/2000/svg">
<path d="M440.76 879.64C683.661 879.64 880.57 682.73 880.57 439.83C880.57 196.93 683.661 0.0200195 440.76 0.0200195C197.86 0.0200195 0.950195 196.93 0.950195 439.83C0.950195 682.73 197.86 879.64 440.76 879.64Z" fill="url(#paint0_radial_389_2456)"/>
<path d="M440.76 879.64C683.661 879.64 880.57 682.73 880.57 439.83C880.57 196.93 683.661 0.0200195 440.76 0.0200195C197.86 0.0200195 0.950195 196.93 0.950195 439.83C0.950195 682.73 197.86 879.64 440.76 879.64Z" fill="url(#paint1_radial_389_2456)"/>
<path d="M440.76 879.64C683.661 879.64 880.57 682.73 880.57 439.83C880.57 196.93 683.661 0.0200195 440.76 0.0200195C197.86 0.0200195 0.950195 196.93 0.950195 439.83C0.950195 682.73 197.86 879.64 440.76 879.64Z" fill="url(#paint2_radial_389_2456)"/>
<path d="M440.76 879.64C683.661 879.64 880.57 682.73 880.57 439.83C880.57 196.93 683.661 0.0200195 440.76 0.0200195C197.86 0.0200195 0.950195 196.93 0.950195 439.83C0.950195 682.73 197.86 879.64 440.76 879.64Z" fill="url(#paint3_radial_389_2456)"/>
<defs>
<radialGradient id="paint0_radial_389_2456" cx="0" cy="0" r="1" gradientUnits="userSpaceOnUse" gradientTransform="translate(414.15 383.48) scale(586.49 586.49)">
<stop stop-opacity="0"/>
<stop offset="0.44" stop-opacity="0.09"/>
<stop offset="0.75" stop-opacity="0.4"/>
</radialGradient>
<radialGradient id="paint1_radial_389_2456" cx="0" cy="0" r="1" gradientUnits="userSpaceOnUse" gradientTransform="translate(476.76 457.83) scale(549.79 549.79)">
<stop stop-color="white" stop-opacity="0"/>
<stop offset="0.82" stop-color="white" stop-opacity="0.2"/>
<stop offset="1" stop-color="white" stop-opacity="0.5"/>
</radialGradient>
<radialGradient id="paint2_radial_389_2456" cx="0" cy="0" r="1" gradientUnits="userSpaceOnUse" gradientTransform="translate(523.71 565.83) rotate(0.400903) scale(631.99 631.99)">
<stop offset="0.551483" stop-color="white" stop-opacity="0"/>
<stop offset="0.78745" stop-color="white" stop-opacity="0.0784"/>
<stop offset="1" stop-color="white" stop-opacity="0.8"/>
</radialGradient>
<radialGradient id="paint3_radial_389_2456" cx="0" cy="0" r="1" gradientUnits="userSpaceOnUse" gradientTransform="translate(579.414 129.96) rotate(-70.78) scale(348.04 696.08)">
<stop stop-color="white" stop-opacity="0.7"/>
<stop offset="0.245" stop-color="white" stop-opacity="0.4"/>
<stop offset="0.385" stop-color="white" stop-opacity="0.252381"/>
<stop offset="1" stop-color="white" stop-opacity="0"/>
</radialGradient>
</defs>
</svg>
