<svg width="878" height="880" viewBox="0 0 878 880" fill="none" xmlns="http://www.w3.org/2000/svg">
<path d="M869.133 464.87H860.233C860.783 456.14 861.053 447.33 861.053 438.46C861.053 429.59 860.783 420.78 860.233 412.04H868.923C873.603 412.04 877.293 408.05 876.913 403.39C858.383 177.53 669.213 0 438.573 0C207.933 0 18.7531 177.53 0.223055 403.39C-0.156945 408.05 3.53305 412.04 8.21305 412.04H16.9131C16.3631 420.78 16.0931 429.59 16.0931 438.46C16.0931 447.33 16.3631 456.14 16.9131 464.87H8.00305C3.35305 464.87 -0.326945 468.83 0.0230547 473.47C17.1931 700.66 206.973 879.65 438.573 879.65C670.173 879.65 859.943 700.66 877.113 473.47C877.463 468.83 873.783 464.87 869.133 464.87Z" fill="black"/>
</svg>
