<svg width="878" height="880" viewBox="0 0 878 880" fill="none" xmlns="http://www.w3.org/2000/svg">
<path d="M868.923 412.04H589.953C586.213 412.04 583.013 409.44 582.153 405.8C582.143 405.77 582.133 405.73 582.123 405.7C581.553 403.27 580.913 400.86 580.213 398.48C580.023 397.79 579.813 397.1 579.603 396.41C579.583 396.34 579.563 396.27 579.533 396.2C579.243 395.24 578.933 394.29 578.623 393.35C578.603 393.3 578.593 393.25 578.563 393.2C578.263 392.27 577.953 391.35 577.613 390.44C577.563 390.28 577.513 390.12 577.443 389.96C577.153 389.12 576.853 388.3 576.533 387.47C576.233 386.68 575.923 385.88 575.603 385.09C575.333 384.41 575.053 383.73 574.773 383.06C574.583 382.58 574.383 382.11 574.173 381.65C574.093 381.45 574.003 381.25 573.913 381.05C573.573 380.26 573.223 379.47 572.863 378.69C572.503 377.89 572.133 377.1 571.753 376.31C571.513 375.8 571.273 375.3 571.023 374.81C570.753 374.26 570.483 373.71 570.203 373.16C570.063 372.88 569.923 372.6 569.773 372.33C569.433 371.65 569.073 370.97 568.713 370.3C568.613 370.11 568.513 369.92 568.393 369.72C568.033 369.04 567.663 368.37 567.283 367.7C567.073 367.31 566.853 366.93 566.633 366.55C566.383 366.12 566.143 365.69 565.883 365.26C565.593 364.76 565.293 364.26 564.983 363.76C564.773 363.39 564.553 363.03 564.323 362.67C564.033 362.18 563.733 361.71 563.423 361.23C563.143 360.77 562.853 360.31 562.553 359.86C562.333 359.5 562.103 359.15 561.863 358.8C561.483 358.22 561.103 357.65 560.713 357.08C560.513 356.77 560.303 356.47 560.093 356.17C559.773 355.7 559.453 355.24 559.113 354.78C558.843 354.37 558.553 353.97 558.253 353.58C557.933 353.12 557.593 352.66 557.253 352.2C557.023 351.87 556.773 351.55 556.523 351.22C555.973 350.49 555.423 349.76 554.853 349.04C554.383 348.44 553.913 347.84 553.423 347.25C553.133 346.88 552.833 346.51 552.533 346.14C551.273 344.61 549.983 343.1 548.663 341.63C548.223 341.13 547.783 340.64 547.323 340.16C546.133 338.85 544.913 337.57 543.663 336.31C543.153 335.78 542.623 335.24 542.083 334.72C537.733 330.43 533.113 326.41 528.253 322.69C527.423 322.05 526.593 321.42 525.753 320.81C521.653 317.8 517.403 315.01 513.003 312.44C512.213 311.97 511.413 311.51 510.603 311.06C509.893 310.66 509.183 310.27 508.463 309.89C508.183 309.72 507.893 309.57 507.603 309.42C507.083 309.14 506.553 308.87 506.023 308.6C505.633 308.39 505.253 308.19 504.863 308.01C504.363 307.75 503.853 307.5 503.343 307.25C502.853 307.01 502.353 306.77 501.853 306.53C501.543 306.38 501.223 306.23 500.903 306.09C500.173 305.74 499.443 305.4 498.703 305.08C498.613 305.03 498.513 304.99 498.423 304.95C497.563 304.57 496.703 304.2 495.843 303.84C495.643 303.75 495.443 303.66 495.243 303.59C494.643 303.33 494.043 303.08 493.433 302.85C492.853 302.61 492.273 302.38 491.683 302.16C491.373 302.03 491.053 301.91 490.733 301.8C490.193 301.58 489.643 301.38 489.093 301.19C488.343 300.91 487.583 300.64 486.823 300.38C486.783 300.36 486.733 300.34 486.683 300.33C485.793 300.02 484.903 299.72 484.003 299.44C483.793 299.36 483.573 299.29 483.363 299.23C482.753 299.03 482.143 298.84 481.533 298.66C480.993 298.49 480.443 298.33 479.903 298.18C479.463 298.04 479.013 297.91 478.573 297.8C478.043 297.64 477.513 297.49 476.973 297.35C476.493 297.22 476.003 297.09 475.523 296.97C474.973 296.82 474.413 296.68 473.863 296.55C473.433 296.44 473.003 296.34 472.563 296.24C471.863 296.07 471.163 295.91 470.463 295.76C470.313 295.72 470.173 295.69 470.033 295.67C469.143 295.47 468.243 295.28 467.343 295.11C467.173 295.07 467.003 295.04 466.823 295.01C466.033 294.85 465.243 294.7 464.453 294.57C464.133 294.51 463.823 294.45 463.503 294.41C462.673 294.26 461.843 294.12 461.013 294C460.073 293.85 459.123 293.72 458.183 293.6C457.193 293.46 456.203 293.34 455.203 293.23C454.113 293.1 453.023 292.99 451.923 292.9C451.103 292.82 450.273 292.76 449.453 292.71C445.863 292.43 442.233 292.3 438.573 292.3C434.913 292.3 431.283 292.43 427.693 292.71C426.873 292.76 426.043 292.82 425.223 292.9C424.123 292.99 423.033 293.1 421.943 293.23C420.943 293.34 419.943 293.46 418.953 293.6C418.003 293.72 417.063 293.85 416.123 294C415.313 294.12 414.503 294.25 413.693 294.4C413.353 294.45 413.013 294.51 412.683 294.57C411.933 294.7 411.183 294.84 410.433 294.99C410.213 295.02 409.983 295.07 409.763 295.12C408.873 295.29 407.993 295.47 407.103 295.67C406.963 295.69 406.823 295.72 406.683 295.76C405.953 295.92 405.223 296.08 404.493 296.26C404.103 296.35 403.703 296.44 403.313 296.54C402.743 296.68 402.183 296.82 401.623 296.97C401.123 297.09 400.623 297.23 400.133 297.37C399.683 297.48 399.233 297.6 398.793 297.73C398.203 297.89 397.613 298.06 397.023 298.24C396.633 298.35 396.253 298.46 395.873 298.58C395.103 298.81 394.343 299.04 393.593 299.29C393.473 299.32 393.363 299.36 393.253 299.4C392.363 299.68 391.483 299.97 390.603 300.28C390.463 300.32 390.323 300.37 390.173 300.43C389.403 300.69 388.633 300.97 387.863 301.25C387.463 301.39 387.063 301.54 386.663 301.7C386.213 301.86 385.773 302.03 385.333 302.21C384.793 302.41 384.243 302.62 383.703 302.85C383.103 303.09 382.493 303.33 381.893 303.59C381.693 303.66 381.493 303.75 381.293 303.84C380.493 304.17 379.693 304.52 378.893 304.88C378.663 304.97 378.423 305.08 378.193 305.19C377.633 305.44 377.073 305.69 376.513 305.96C376.093 306.15 375.673 306.34 375.263 306.54C374.643 306.83 374.033 307.13 373.423 307.44C373.133 307.57 372.843 307.71 372.563 307.86C371.863 308.21 371.153 308.57 370.463 308.94C370.243 309.04 370.033 309.15 369.823 309.27C369.363 309.51 368.903 309.75 368.453 310.01C367.833 310.34 367.213 310.68 366.593 311.03C363.703 312.64 360.883 314.35 358.123 316.15C357.463 316.58 356.813 317.01 356.163 317.45C354.553 318.54 352.963 319.66 351.393 320.81C350.553 321.42 349.713 322.05 348.893 322.69C344.033 326.41 339.413 330.43 335.063 334.72C334.343 335.43 333.633 336.14 332.923 336.87C332.223 337.59 331.523 338.32 330.833 339.06C330.333 339.59 329.833 340.13 329.353 340.67C328.463 341.64 327.593 342.62 326.743 343.61C326.183 344.27 325.613 344.93 325.073 345.6C324.933 345.75 324.813 345.9 324.693 346.05C324.363 346.44 324.033 346.84 323.723 347.25C323.233 347.84 322.763 348.44 322.293 349.04C321.803 349.66 321.323 350.28 320.853 350.91C320.313 351.63 319.773 352.35 319.243 353.08C318.643 353.9 318.063 354.72 317.483 355.55C317.023 356.2 316.573 356.86 316.133 357.52C315.863 357.91 315.603 358.3 315.353 358.7C315.093 359.09 314.833 359.47 314.593 359.86C314.293 360.31 314.003 360.77 313.723 361.23C313.353 361.8 312.993 362.38 312.633 362.97C312.553 363.09 312.473 363.22 312.413 363.34C311.913 364.16 311.413 364.99 310.933 365.82C310.473 366.62 310.013 367.42 309.563 368.23C309.443 368.44 309.323 368.66 309.213 368.87C308.853 369.52 308.503 370.17 308.153 370.82C307.743 371.59 307.333 372.37 306.943 373.16C306.663 373.71 306.393 374.26 306.123 374.81C305.843 375.36 305.573 375.92 305.313 376.48C305.233 376.63 305.173 376.77 305.113 376.91C304.763 377.63 304.423 378.37 304.093 379.1C303.703 379.94 303.333 380.79 302.973 381.65C302.763 382.11 302.563 382.58 302.373 383.06C302.093 383.73 301.813 384.41 301.543 385.09C301.223 385.89 300.903 386.69 300.603 387.49C300.413 387.99 300.223 388.49 300.053 389C299.813 389.62 299.593 390.24 299.373 390.87C299.033 391.83 298.703 392.8 298.383 393.78C298.093 394.65 297.813 395.53 297.543 396.41C297.333 397.1 297.123 397.79 296.933 398.48C296.233 400.86 295.593 403.27 295.023 405.7C295.013 405.73 295.003 405.77 294.993 405.8C294.133 409.44 290.933 412.04 287.193 412.04H8.21321C3.53321 412.04 -0.15678 408.05 0.22322 403.39C18.7532 177.53 207.933 0 438.573 0C669.213 0 858.383 177.53 876.913 403.39C877.293 408.05 873.603 412.04 868.923 412.04Z" fill="#FF0000"/>
<path d="M877.113 473.47C859.943 700.66 670.173 879.65 438.573 879.65C206.973 879.65 17.1931 700.66 0.0230547 473.47C-0.326945 468.83 3.35307 464.87 8.00307 464.87H286.573C290.373 464.87 293.603 467.55 294.413 471.26C294.863 473.33 295.353 475.39 295.893 477.43C296.163 478.45 296.443 479.47 296.733 480.48C296.993 481.41 297.273 482.34 297.563 483.27C297.583 483.37 297.613 483.46 297.653 483.55C297.683 483.64 297.713 483.74 297.743 483.83C297.963 484.59 298.213 485.34 298.463 486.09C298.513 486.25 298.563 486.41 298.623 486.57C298.833 487.21 299.043 487.84 299.273 488.46C299.413 488.89 299.563 489.32 299.723 489.75C299.893 490.23 300.063 490.7 300.253 491.18C300.453 491.76 300.683 492.35 300.913 492.93C300.923 492.95 300.923 492.97 300.933 492.99C301.013 493.21 301.093 493.42 301.193 493.64C301.203 493.67 301.223 493.71 301.233 493.74C301.473 494.39 301.733 495.03 301.993 495.67C302.003 495.68 302.003 495.7 302.013 495.71C302.183 496.12 302.353 496.53 302.523 496.94C302.573 497.06 302.623 497.17 302.673 497.29C302.853 497.72 303.043 498.16 303.223 498.58C303.243 498.62 303.253 498.66 303.273 498.7C303.503 499.22 303.733 499.74 303.973 500.26C304.133 500.64 304.303 501.01 304.483 501.38C304.713 501.9 304.953 502.42 305.203 502.93C305.323 503.18 305.433 503.42 305.553 503.66C305.663 503.91 305.783 504.16 305.913 504.4C306.083 504.77 306.263 505.13 306.443 505.49C306.593 505.8 306.743 506.1 306.903 506.41C307.053 506.72 307.213 507.02 307.373 507.32C307.593 507.75 307.813 508.18 308.053 508.61C308.203 508.9 308.353 509.19 308.513 509.48C308.773 509.98 309.033 510.47 309.313 510.95C309.343 511 309.373 511.06 309.403 511.11C309.733 511.72 310.073 512.33 310.423 512.93C310.443 512.97 310.463 513 310.483 513.04C310.583 513.24 310.693 513.43 310.813 513.62C311.223 514.33 311.633 515.03 312.063 515.73C312.213 516 312.373 516.27 312.543 516.53C312.583 516.59 312.613 516.65 312.653 516.71C312.953 517.21 313.263 517.7 313.573 518.19C313.583 518.2 313.583 518.21 313.593 518.22C313.823 518.6 314.063 518.97 314.303 519.34C314.593 519.8 314.883 520.25 315.183 520.7C315.513 521.21 315.853 521.71 316.193 522.21C316.373 522.5 316.563 522.78 316.773 523.06C316.793 523.08 316.803 523.11 316.813 523.13C317.113 523.57 317.413 524.01 317.733 524.44C317.763 524.49 317.793 524.54 317.833 524.59C318.133 525.03 318.443 525.47 318.773 525.91C318.793 525.94 318.823 525.98 318.843 526.01C319.093 526.37 319.353 526.73 319.623 527.08C319.943 527.53 320.283 527.98 320.633 528.43C320.743 528.6 320.873 528.76 320.993 528.92C321.093 529.07 321.203 529.21 321.313 529.34C321.343 529.38 321.383 529.43 321.413 529.47C321.893 530.1 322.373 530.72 322.873 531.34C323.003 531.53 323.153 531.71 323.303 531.89C323.303 531.89 323.31 531.897 323.323 531.91C323.813 532.53 324.313 533.15 324.823 533.76C324.873 533.82 324.933 533.89 324.983 533.95C325.073 534.07 325.163 534.18 325.263 534.28C325.543 534.62 325.823 534.95 326.093 535.28C326.473 535.72 326.853 536.16 327.233 536.6C327.493 536.9 327.753 537.2 328.023 537.5C328.283 537.8 328.563 538.1 328.833 538.4C329.163 538.78 329.503 539.16 329.843 539.53C330.293 540.02 330.743 540.5 331.203 540.98C331.293 541.08 331.393 541.19 331.493 541.29C331.763 541.58 332.033 541.86 332.303 542.14C332.583 542.43 332.853 542.71 333.133 542.99L333.153 543.01C333.423 543.28 333.693 543.56 333.973 543.84C334.243 544.12 334.523 544.39 334.803 544.66C334.923 544.8 335.063 544.93 335.203 545.06C335.663 545.53 336.133 545.98 336.613 546.44C338.773 548.5 340.993 550.51 343.283 552.44C343.973 553.03 344.663 553.6 345.363 554.17C345.383 554.19 345.403 554.21 345.423 554.22C346.053 554.74 346.683 555.24 347.323 555.74C347.683 556.03 348.053 556.32 348.423 556.6C348.503 556.66 348.573 556.72 348.653 556.78C348.763 556.87 348.883 556.96 349.003 557.04C349.473 557.41 349.943 557.77 350.423 558.12C350.563 558.22 350.703 558.33 350.843 558.43C351.463 558.9 352.083 559.35 352.713 559.8C353.473 560.35 354.253 560.89 355.033 561.43C355.103 561.48 355.183 561.54 355.273 561.59C355.383 561.67 355.503 561.75 355.613 561.82C356.333 562.32 357.063 562.8 357.793 563.28C358.533 563.77 359.273 564.25 360.023 564.72C360.183 564.82 360.343 564.93 360.513 565.03C361.293 565.52 362.083 566 362.883 566.47C362.943 566.51 363.003 566.55 363.063 566.58C363.743 566.99 364.423 567.39 365.113 567.78C365.383 567.94 365.653 568.1 365.923 568.25C366.453 568.55 366.983 568.85 367.513 569.13C367.963 569.39 368.413 569.63 368.863 569.87C369.223 570.07 369.593 570.26 369.963 570.45C370.513 570.75 371.063 571.03 371.623 571.32C372.023 571.52 372.433 571.73 372.843 571.93C373.393 572.21 373.963 572.49 374.523 572.75C375.323 573.14 376.133 573.52 376.943 573.89C377.033 573.93 377.113 573.97 377.203 574.01C377.743 574.26 378.283 574.51 378.823 574.75C378.923 574.79 379.023 574.84 379.123 574.88C379.493 575.05 379.873 575.21 380.253 575.37C380.643 575.54 381.033 575.71 381.423 575.87C381.443 575.87 381.473 575.89 381.493 575.9C382.003 576.12 382.503 576.33 383.023 576.53C383.063 576.55 383.103 576.56 383.143 576.58C383.633 576.78 384.113 576.97 384.603 577.16C384.693 577.19 384.783 577.23 384.873 577.26C385.183 577.39 385.503 577.52 385.813 577.63C386.433 577.87 387.043 578.1 387.663 578.32C387.993 578.45 388.333 578.58 388.673 578.69C388.703 578.7 388.743 578.71 388.773 578.73C389.433 578.97 390.103 579.2 390.763 579.43C391.203 579.58 391.653 579.73 392.103 579.87C392.483 580.01 392.873 580.14 393.263 580.25C394.003 580.5 394.753 580.74 395.503 580.96C395.803 581.06 396.113 581.15 396.423 581.23C396.863 581.37 397.293 581.5 397.743 581.62C397.773 581.63 397.813 581.64 397.843 581.65C398.503 581.85 399.173 582.03 399.843 582.21L400.083 582.27C400.213 582.31 400.353 582.34 400.483 582.38C401.093 582.55 401.703 582.71 402.313 582.85C402.423 582.88 402.523 582.9 402.633 582.93C403.223 583.09 403.813 583.23 404.413 583.37C404.983 583.51 405.553 583.64 406.123 583.76C406.433 583.84 406.733 583.91 407.043 583.96C407.113 583.98 407.183 583.99 407.253 584.01C407.913 584.16 408.573 584.3 409.243 584.43C409.593 584.5 409.943 584.57 410.293 584.63C410.383 584.65 410.473 584.67 410.563 584.68C411.213 584.82 411.863 584.94 412.513 585.05C412.773 585.1 413.043 585.15 413.313 585.19C414.033 585.32 414.753 585.44 415.483 585.55C415.723 585.59 415.953 585.63 416.193 585.66C416.853 585.76 417.503 585.86 418.163 585.95C418.243 585.96 418.333 585.97 418.413 585.98C418.773 586.03 419.143 586.08 419.503 586.13C420.123 586.21 420.743 586.28 421.363 586.35C421.513 586.37 421.663 586.39 421.823 586.41C422.273 586.46 422.723 586.51 423.183 586.55C423.733 586.62 424.293 586.67 424.853 586.72C424.923 586.73 425.003 586.73 425.083 586.74C426.133 586.84 427.183 586.92 428.243 586.99C429.203 587.06 430.163 587.12 431.133 587.16C431.223 587.17 431.323 587.18 431.413 587.18H431.503C431.953 587.2 432.393 587.22 432.843 587.24C432.963 587.24 433.073 587.25 433.193 587.25C433.883 587.28 434.573 587.3 435.263 587.31C436.363 587.34 437.473 587.35 438.573 587.35C439.673 587.35 440.783 587.35 441.873 587.31C442.573 587.3 443.263 587.28 443.953 587.25C444.073 587.25 444.193 587.24 444.313 587.24C444.753 587.22 445.203 587.2 445.643 587.18H445.733C445.823 587.18 445.923 587.17 446.013 587.16C446.983 587.12 447.943 587.06 448.903 586.99C449.963 586.92 451.013 586.84 452.063 586.74C452.143 586.73 452.213 586.73 452.293 586.72C452.853 586.67 453.413 586.62 453.963 586.55C454.413 586.51 454.873 586.46 455.323 586.41C455.473 586.39 455.633 586.37 455.783 586.35C456.403 586.28 457.023 586.21 457.643 586.13C458.003 586.08 458.373 586.03 458.733 585.98C459.693 585.85 460.643 585.71 461.593 585.56C462.373 585.44 463.143 585.31 463.913 585.17C464.153 585.14 464.393 585.1 464.633 585.05C465.373 584.92 466.113 584.78 466.853 584.63C467.203 584.57 467.553 584.5 467.903 584.43C468.583 584.3 469.273 584.15 469.953 584C470.343 583.92 470.733 583.83 471.123 583.74C471.653 583.63 472.183 583.5 472.713 583.37C473.083 583.29 473.453 583.2 473.823 583.11C474.013 583.06 474.213 583.01 474.403 582.96C474.423 582.95 474.453 582.95 474.473 582.94C474.973 582.83 475.463 582.7 475.963 582.56C476.033 582.54 476.113 582.52 476.183 582.5C476.513 582.43 476.843 582.34 477.163 582.24C477.893 582.05 478.613 581.85 479.343 581.64C479.733 581.53 480.123 581.42 480.503 581.3C480.983 581.16 481.463 581.02 481.933 580.87C482.273 580.77 482.613 580.66 482.943 580.56C483.183 580.48 483.423 580.4 483.663 580.32C483.733 580.3 483.793 580.28 483.863 580.26C484.393 580.1 484.903 579.93 485.423 579.75C485.443 579.74 485.453 579.74 485.473 579.73C485.703 579.66 485.933 579.58 486.163 579.5C486.983 579.22 487.803 578.94 488.613 578.64C488.863 578.56 489.103 578.47 489.353 578.37C490.013 578.13 490.673 577.89 491.323 577.63C491.573 577.54 491.823 577.44 492.073 577.34C492.133 577.32 492.203 577.29 492.263 577.26C492.903 577.02 493.543 576.77 494.173 576.51C494.213 576.5 494.243 576.48 494.283 576.47C494.663 576.31 495.053 576.15 495.423 575.99C495.433 575.99 495.443 575.98 495.453 575.98C496.043 575.74 496.623 575.49 497.203 575.23C497.483 575.12 497.753 575 498.033 574.87C498.743 574.56 499.443 574.25 500.143 573.92C500.963 573.55 501.783 573.16 502.593 572.77C503.063 572.54 503.533 572.31 504.003 572.08C504.563 571.8 505.123 571.52 505.673 571.24C505.693 571.23 505.703 571.22 505.723 571.21C506.523 570.81 507.313 570.39 508.093 569.97C508.553 569.72 509.013 569.47 509.463 569.22C510.063 568.9 510.653 568.57 511.243 568.24C511.503 568.09 511.773 567.94 512.033 567.78C512.703 567.4 513.363 567.01 514.023 566.62C514.193 566.52 514.353 566.42 514.513 566.32C515.223 565.9 515.923 565.47 516.613 565.04C516.823 564.91 517.033 564.78 517.243 564.63C517.953 564.19 518.653 563.74 519.353 563.28C520.083 562.8 520.813 562.32 521.533 561.82C521.643 561.75 521.763 561.67 521.873 561.59C521.953 561.54 522.033 561.48 522.113 561.43C522.893 560.89 523.663 560.35 524.433 559.8C525.263 559.2 526.093 558.6 526.913 557.98C527.453 557.58 527.983 557.17 528.513 556.76C529.003 556.39 529.483 556.01 529.963 555.63C530.683 555.07 531.393 554.49 532.103 553.9C533.183 553.02 534.253 552.12 535.303 551.2C535.813 550.76 536.323 550.32 536.823 549.87C537.563 549.21 538.293 548.54 539.023 547.86C539.323 547.59 539.613 547.31 539.913 547.02C540.523 546.45 541.133 545.87 541.733 545.27C542.503 544.53 543.263 543.77 544.003 543H544.013C544.293 542.71 544.563 542.43 544.843 542.14C545.113 541.86 545.383 541.58 545.653 541.29C546.123 540.79 546.593 540.29 547.053 539.79C547.483 539.33 547.903 538.87 548.313 538.4C548.583 538.1 548.863 537.8 549.123 537.5C549.393 537.2 549.653 536.9 549.913 536.6C550.293 536.16 550.673 535.72 551.053 535.28C551.323 534.95 551.603 534.62 551.883 534.28C551.983 534.18 552.073 534.07 552.163 533.95C552.213 533.89 552.273 533.82 552.323 533.76C552.833 533.15 553.333 532.53 553.823 531.91C553.823 531.91 553.83 531.903 553.843 531.89C553.993 531.71 554.133 531.53 554.273 531.34C554.773 530.72 555.253 530.1 555.733 529.47C555.763 529.43 555.803 529.38 555.833 529.34C555.943 529.21 556.053 529.07 556.153 528.92C556.273 528.76 556.403 528.6 556.513 528.43C556.863 527.98 557.203 527.53 557.523 527.08C557.793 526.73 558.053 526.37 558.303 526.01C558.323 525.98 558.353 525.94 558.373 525.91C558.703 525.47 559.013 525.03 559.313 524.59C559.353 524.54 559.383 524.49 559.413 524.44C559.733 524.01 560.033 523.57 560.333 523.13C560.333 523.11 560.353 523.08 560.373 523.06C560.573 522.78 560.773 522.5 560.953 522.21C561.293 521.71 561.633 521.21 561.963 520.7C562.263 520.25 562.553 519.8 562.843 519.34C563.083 518.97 563.323 518.6 563.553 518.22C563.563 518.21 563.563 518.2 563.573 518.19C563.883 517.7 564.193 517.21 564.493 516.71C564.533 516.65 564.563 516.59 564.603 516.53C564.763 516.27 564.923 516 565.083 515.73C565.513 515.03 565.923 514.33 566.333 513.62C566.443 513.43 566.553 513.23 566.663 513.04C566.683 513 566.703 512.97 566.723 512.93C567.073 512.33 567.413 511.72 567.743 511.11C567.773 511.06 567.803 511 567.833 510.95C568.113 510.47 568.373 509.98 568.633 509.48C568.793 509.19 568.943 508.9 569.093 508.61C569.333 508.18 569.553 507.75 569.773 507.32C569.933 507.02 570.093 506.72 570.243 506.41C570.403 506.1 570.553 505.8 570.703 505.49C570.883 505.13 571.063 504.77 571.233 504.4C571.363 504.16 571.483 503.91 571.593 503.66C571.713 503.42 571.823 503.18 571.943 502.93C572.193 502.42 572.433 501.9 572.663 501.38C572.843 501.01 573.013 500.64 573.173 500.26C573.413 499.74 573.643 499.22 573.873 498.7C573.893 498.66 573.903 498.62 573.923 498.58C574.103 498.16 574.293 497.72 574.473 497.29C574.523 497.17 574.573 497.06 574.623 496.94C574.793 496.53 574.963 496.12 575.133 495.71C575.143 495.7 575.143 495.68 575.153 495.67C575.413 495.03 575.673 494.39 575.913 493.74C575.923 493.71 575.943 493.67 575.953 493.64C576.053 493.42 576.133 493.21 576.213 492.99C576.223 492.97 576.223 492.95 576.233 492.93C576.463 492.35 576.693 491.76 576.893 491.18C577.083 490.7 577.253 490.23 577.423 489.75C577.583 489.32 577.733 488.89 577.873 488.46C578.103 487.84 578.313 487.21 578.523 486.57C578.583 486.41 578.633 486.25 578.683 486.09C578.933 485.34 579.183 484.59 579.403 483.83C579.433 483.74 579.463 483.64 579.493 483.55C579.533 483.46 579.563 483.37 579.583 483.27C579.873 482.34 580.153 481.41 580.413 480.48C580.703 479.47 580.983 478.45 581.253 477.43C581.793 475.39 582.283 473.33 582.733 471.26C583.543 467.55 586.773 464.87 590.573 464.87H869.133C873.783 464.87 877.463 468.83 877.113 473.47Z" fill="white"/>
<path d="M545.003 439.83C545.003 448.45 543.973 456.84 542.033 464.87C530.783 511.57 488.733 546.26 438.573 546.26C388.413 546.26 346.363 511.57 335.103 464.87C333.163 456.84 332.133 448.45 332.133 439.83C332.133 430.22 333.403 420.9 335.803 412.04C348.023 366.73 389.403 333.39 438.573 333.39C487.743 333.39 529.113 366.73 541.333 412.04C543.733 420.9 545.003 430.22 545.003 439.83Z" fill="white"/>
<path d="M509.523 439.83C509.523 445.58 508.833 451.17 507.543 456.52C500.043 487.66 472.013 510.78 438.573 510.78C405.133 510.78 377.093 487.66 369.593 456.52C368.303 451.17 367.613 445.58 367.613 439.83C367.613 433.42 368.463 427.21 370.053 421.3C378.203 391.1 405.793 368.87 438.573 368.87C471.353 368.87 498.933 391.1 507.083 421.3C508.673 427.21 509.523 433.42 509.523 439.83Z" fill="url(#paint0_radial_389_2457)"/>
<path d="M860.233 412.04H589.953C586.213 412.04 583.013 409.44 582.153 405.8C582.143 405.77 582.133 405.73 582.123 405.7C581.553 403.27 580.913 400.86 580.213 398.48C580.023 397.79 579.813 397.1 579.603 396.41C579.583 396.34 579.563 396.27 579.533 396.2C579.243 395.24 578.933 394.29 578.623 393.35C578.603 393.3 578.593 393.25 578.563 393.2C578.263 392.27 577.953 391.35 577.613 390.44C577.563 390.28 577.513 390.12 577.443 389.96C577.153 389.12 576.853 388.3 576.533 387.47C576.233 386.68 575.923 385.88 575.603 385.09C575.333 384.41 575.053 383.73 574.773 383.06C574.583 382.58 574.383 382.11 574.173 381.65C574.093 381.45 574.003 381.25 573.913 381.05C573.573 380.26 573.223 379.47 572.863 378.69C572.503 377.89 572.133 377.1 571.753 376.31C571.513 375.8 571.273 375.3 571.023 374.81C570.753 374.26 570.483 373.71 570.203 373.16C570.063 372.88 569.923 372.6 569.773 372.33C569.433 371.65 569.073 370.97 568.713 370.3C568.613 370.11 568.513 369.92 568.393 369.72C568.033 369.04 567.663 368.37 567.283 367.7C567.073 367.31 566.853 366.93 566.633 366.55C566.393 366.12 566.143 365.69 565.883 365.26C565.593 364.76 565.293 364.26 564.983 363.76C564.773 363.39 564.553 363.03 564.323 362.67C564.033 362.18 563.733 361.71 563.423 361.23C563.143 360.77 562.853 360.31 562.553 359.86C562.333 359.5 562.103 359.15 561.863 358.8C561.483 358.22 561.103 357.65 560.713 357.08C560.513 356.77 560.303 356.47 560.093 356.17C559.773 355.7 559.453 355.24 559.113 354.78C558.843 354.37 558.553 353.97 558.253 353.58C557.933 353.12 557.593 352.66 557.253 352.2C557.023 351.87 556.773 351.55 556.523 351.22C555.973 350.49 555.423 349.76 554.853 349.04C554.383 348.44 553.913 347.84 553.423 347.25C553.133 346.88 552.833 346.51 552.533 346.14C551.273 344.61 549.983 343.1 548.663 341.63C548.223 341.13 547.783 340.64 547.323 340.16C546.133 338.85 544.913 337.57 543.663 336.31C543.153 335.78 542.623 335.24 542.083 334.72C537.733 330.43 533.113 326.41 528.253 322.69C527.423 322.05 526.593 321.42 525.753 320.81C521.653 317.8 517.403 315.01 513.003 312.44C512.213 311.97 511.413 311.51 510.603 311.06C509.893 310.66 509.183 310.27 508.463 309.89C508.183 309.72 507.893 309.57 507.603 309.42C507.083 309.14 506.553 308.87 506.023 308.6C505.633 308.39 505.253 308.19 504.863 308.01C504.363 307.75 503.853 307.5 503.343 307.25C502.853 307.01 502.353 306.77 501.853 306.53C501.543 306.38 501.223 306.23 500.903 306.09C500.173 305.74 499.443 305.4 498.703 305.08C498.613 305.03 498.513 304.99 498.423 304.95C497.563 304.57 496.703 304.2 495.843 303.84C495.643 303.75 495.443 303.66 495.243 303.59C494.643 303.33 494.043 303.08 493.433 302.85C492.853 302.61 492.273 302.38 491.683 302.16C491.373 302.03 491.053 301.91 490.733 301.8C490.193 301.58 489.643 301.38 489.093 301.19C488.343 300.91 487.583 300.64 486.823 300.38C486.783 300.36 486.733 300.34 486.683 300.33C485.793 300.02 484.903 299.72 484.003 299.44C483.793 299.36 483.573 299.29 483.363 299.23C482.753 299.03 482.143 298.84 481.533 298.66C480.993 298.49 480.443 298.33 479.903 298.18C479.463 298.04 479.013 297.91 478.573 297.8C478.043 297.64 477.513 297.49 476.973 297.35C476.493 297.22 476.003 297.09 475.523 296.97C474.973 296.82 474.413 296.68 473.863 296.55C473.433 296.44 473.003 296.34 472.563 296.24C471.863 296.07 471.163 295.91 470.463 295.76C470.313 295.72 470.173 295.69 470.033 295.67C469.143 295.47 468.243 295.28 467.343 295.11C467.173 295.07 467.003 295.04 466.823 295.01C466.033 294.85 465.243 294.7 464.453 294.57C464.133 294.51 463.823 294.45 463.503 294.41C462.673 294.26 461.843 294.12 461.013 294C460.073 293.85 459.123 293.72 458.183 293.6C457.193 293.46 456.203 293.34 455.203 293.23C454.113 293.1 453.023 292.99 451.923 292.9C451.103 292.82 450.273 292.76 449.453 292.71C445.863 292.43 442.233 292.3 438.573 292.3C434.913 292.3 431.283 292.43 427.693 292.71C426.873 292.76 426.043 292.82 425.223 292.9C424.123 292.99 423.033 293.1 421.943 293.23C420.943 293.34 419.943 293.46 418.953 293.6C418.003 293.72 417.063 293.85 416.123 294C415.313 294.12 414.503 294.25 413.693 294.4C413.353 294.45 413.013 294.51 412.683 294.57C411.933 294.7 411.183 294.84 410.433 294.99C410.213 295.02 409.983 295.07 409.763 295.12C408.873 295.29 407.993 295.47 407.103 295.67C406.963 295.69 406.823 295.72 406.683 295.76C405.953 295.92 405.223 296.08 404.493 296.26C404.103 296.35 403.703 296.44 403.313 296.54C402.743 296.68 402.183 296.82 401.623 296.97C401.123 297.09 400.623 297.23 400.133 297.37C399.683 297.48 399.233 297.6 398.793 297.73C398.203 297.89 397.613 298.06 397.023 298.24C396.633 298.35 396.253 298.46 395.873 298.58C395.103 298.81 394.343 299.04 393.593 299.29C393.473 299.32 393.363 299.36 393.253 299.4C392.363 299.68 391.483 299.97 390.603 300.28C390.463 300.32 390.323 300.37 390.173 300.43C389.403 300.69 388.633 300.97 387.863 301.25C387.463 301.39 387.063 301.54 386.663 301.7C386.213 301.86 385.773 302.03 385.333 302.21C384.793 302.41 384.243 302.62 383.703 302.85C383.103 303.09 382.493 303.33 381.893 303.59C381.693 303.66 381.493 303.75 381.293 303.84C380.493 304.17 379.693 304.52 378.893 304.88C378.663 304.97 378.423 305.08 378.193 305.19C377.633 305.44 377.073 305.69 376.513 305.96C376.093 306.15 375.673 306.34 375.263 306.54C374.643 306.83 374.033 307.13 373.423 307.44C373.133 307.57 372.843 307.71 372.563 307.86C371.853 308.21 371.153 308.57 370.463 308.94C370.243 309.04 370.033 309.15 369.823 309.27C369.363 309.51 368.903 309.75 368.453 310.01C367.833 310.34 367.213 310.68 366.593 311.03C363.703 312.64 360.883 314.35 358.123 316.15C357.463 316.58 356.813 317.01 356.163 317.45C354.553 318.54 352.963 319.66 351.393 320.81C350.553 321.42 349.713 322.05 348.893 322.69C344.033 326.41 339.413 330.43 335.063 334.72C334.343 335.43 333.633 336.14 332.923 336.87C332.223 337.59 331.523 338.32 330.833 339.06C330.333 339.59 329.833 340.13 329.353 340.67C328.463 341.64 327.593 342.62 326.743 343.61C326.183 344.27 325.613 344.93 325.073 345.6C324.933 345.75 324.813 345.9 324.693 346.05C324.363 346.44 324.033 346.84 323.723 347.25C323.233 347.84 322.763 348.44 322.293 349.04C321.803 349.66 321.323 350.28 320.853 350.91C320.313 351.63 319.773 352.35 319.243 353.08C318.643 353.9 318.063 354.72 317.483 355.55C317.023 356.2 316.573 356.86 316.133 357.52C315.863 357.91 315.603 358.3 315.353 358.7C315.093 359.09 314.833 359.47 314.593 359.86C314.293 360.31 314.003 360.77 313.723 361.23C313.353 361.8 312.993 362.38 312.633 362.97C312.553 363.09 312.473 363.22 312.413 363.34C311.913 364.16 311.413 364.99 310.933 365.82C310.473 366.62 310.013 367.42 309.563 368.23C309.443 368.44 309.323 368.66 309.213 368.87C308.853 369.52 308.503 370.17 308.153 370.82C307.743 371.59 307.333 372.37 306.943 373.16C306.663 373.71 306.393 374.26 306.123 374.81C305.843 375.36 305.573 375.92 305.313 376.48C305.233 376.63 305.173 376.77 305.113 376.91C304.763 377.63 304.423 378.37 304.093 379.1C303.703 379.94 303.333 380.79 302.973 381.65C302.763 382.11 302.563 382.58 302.373 383.06C302.093 383.73 301.813 384.41 301.543 385.09C301.223 385.89 300.903 386.69 300.603 387.49C300.413 387.99 300.223 388.49 300.053 389C299.813 389.62 299.593 390.24 299.373 390.87C299.033 391.83 298.703 392.8 298.383 393.78C298.093 394.65 297.813 395.53 297.543 396.41C297.333 397.1 297.123 397.79 296.933 398.48C296.233 400.86 295.593 403.27 295.023 405.7C295.013 405.73 295.003 405.77 294.993 405.8C294.133 409.44 290.933 412.04 287.193 412.04H16.9128C16.3628 420.78 16.0928 429.59 16.0928 438.46C16.0928 447.33 16.3628 456.14 16.9128 464.87H286.573C290.373 464.87 293.603 467.55 294.413 471.26C294.863 473.33 295.353 475.39 295.893 477.43C296.163 478.45 296.443 479.47 296.733 480.48C296.993 481.41 297.273 482.34 297.563 483.27C297.583 483.37 297.613 483.46 297.653 483.55C297.683 483.64 297.713 483.74 297.743 483.83C297.963 484.59 298.213 485.34 298.463 486.09C298.513 486.25 298.563 486.41 298.623 486.57C298.833 487.21 299.043 487.84 299.273 488.46C299.413 488.89 299.563 489.32 299.723 489.75C299.893 490.23 300.063 490.7 300.253 491.18C300.463 491.77 300.683 492.35 300.913 492.93C300.923 492.95 300.923 492.97 300.933 492.99C301.013 493.21 301.093 493.42 301.193 493.64C301.203 493.67 301.223 493.71 301.233 493.74C301.473 494.39 301.733 495.03 301.993 495.67C302.003 495.68 302.003 495.7 302.013 495.71C302.183 496.12 302.353 496.53 302.523 496.94C302.573 497.06 302.623 497.17 302.673 497.29C302.853 497.72 303.043 498.16 303.223 498.58C303.243 498.62 303.253 498.66 303.273 498.7C303.503 499.22 303.733 499.74 303.973 500.26C304.133 500.64 304.303 501.01 304.483 501.38C304.713 501.9 304.953 502.42 305.203 502.93C305.323 503.18 305.433 503.42 305.553 503.66C305.663 503.91 305.783 504.16 305.913 504.4C306.083 504.77 306.263 505.13 306.443 505.49C306.593 505.8 306.743 506.1 306.903 506.41C307.053 506.72 307.213 507.02 307.373 507.32C307.593 507.75 307.813 508.18 308.053 508.61C308.203 508.9 308.353 509.19 308.513 509.48C308.773 509.98 309.033 510.47 309.313 510.95C309.343 511 309.373 511.06 309.403 511.11C309.733 511.72 310.073 512.33 310.423 512.93C310.443 512.97 310.463 513 310.483 513.04C310.583 513.24 310.693 513.43 310.813 513.62C311.223 514.33 311.633 515.03 312.063 515.73C312.213 516 312.373 516.27 312.543 516.53C312.583 516.59 312.613 516.65 312.653 516.71C312.953 517.21 313.263 517.7 313.573 518.19C313.583 518.2 313.583 518.21 313.593 518.22C313.823 518.6 314.063 518.97 314.303 519.34C314.593 519.8 314.883 520.25 315.183 520.7C315.513 521.21 315.853 521.71 316.193 522.21C316.373 522.5 316.563 522.78 316.773 523.06C316.793 523.08 316.803 523.11 316.813 523.13C317.113 523.57 317.413 524.01 317.733 524.44C317.763 524.49 317.793 524.54 317.833 524.59C318.143 525.04 318.453 525.47 318.773 525.91C318.793 525.94 318.823 525.98 318.843 526.01C319.093 526.37 319.353 526.73 319.623 527.08C319.953 527.53 320.293 527.98 320.633 528.43C320.743 528.6 320.873 528.76 320.993 528.92C321.093 529.07 321.203 529.21 321.313 529.34C321.343 529.38 321.383 529.43 321.413 529.47C321.893 530.1 322.373 530.72 322.873 531.34C323.003 531.53 323.153 531.71 323.303 531.89C323.303 531.89 323.309 531.896 323.323 531.91C323.813 532.53 324.313 533.15 324.823 533.76C324.873 533.82 324.933 533.89 324.983 533.95C325.073 534.07 325.163 534.18 325.263 534.28C325.543 534.62 325.823 534.95 326.093 535.28C326.473 535.72 326.853 536.16 327.233 536.6C327.493 536.9 327.753 537.2 328.023 537.5C328.283 537.8 328.563 538.1 328.833 538.4C329.163 538.78 329.503 539.16 329.843 539.53C330.293 540.02 330.743 540.5 331.203 540.98C331.293 541.08 331.393 541.19 331.493 541.29C331.763 541.58 332.033 541.86 332.303 542.14C332.583 542.43 332.853 542.71 333.133 542.99L333.153 543.01C333.423 543.28 333.693 543.56 333.973 543.84C334.243 544.12 334.523 544.39 334.803 544.66C334.923 544.8 335.063 544.93 335.203 545.06C335.663 545.53 336.133 545.98 336.613 546.44C338.773 548.5 340.993 550.51 343.283 552.44C343.973 553.03 344.663 553.6 345.363 554.17C345.383 554.19 345.403 554.21 345.423 554.22C346.053 554.74 346.683 555.24 347.323 555.74C347.683 556.03 348.053 556.32 348.423 556.6C348.503 556.66 348.573 556.72 348.653 556.78C348.763 556.87 348.883 556.96 349.003 557.04C349.473 557.41 349.943 557.77 350.423 558.12C350.563 558.22 350.703 558.33 350.843 558.43C351.463 558.9 352.083 559.35 352.713 559.8C353.473 560.35 354.253 560.89 355.033 561.43C355.103 561.48 355.183 561.54 355.273 561.59C355.383 561.67 355.503 561.75 355.613 561.82C356.333 562.32 357.063 562.8 357.793 563.28C358.533 563.77 359.273 564.25 360.023 564.72C360.183 564.82 360.343 564.93 360.513 565.03C361.293 565.52 362.083 566 362.883 566.47C362.943 566.51 363.003 566.55 363.063 566.58C363.743 566.99 364.423 567.39 365.113 567.78C365.383 567.94 365.653 568.1 365.923 568.25C366.453 568.55 366.983 568.85 367.513 569.13C367.963 569.39 368.413 569.63 368.863 569.87C369.223 570.07 369.593 570.26 369.963 570.45C370.513 570.75 371.063 571.03 371.623 571.32C372.023 571.52 372.433 571.73 372.843 571.93C373.393 572.21 373.963 572.49 374.523 572.75C375.323 573.14 376.133 573.52 376.943 573.89C377.033 573.93 377.113 573.97 377.203 574.01C377.743 574.26 378.283 574.51 378.823 574.75C378.923 574.79 379.023 574.84 379.123 574.88C379.493 575.05 379.873 575.21 380.253 575.37C380.643 575.54 381.033 575.71 381.423 575.87C381.443 575.87 381.473 575.89 381.493 575.9C382.003 576.12 382.503 576.33 383.023 576.53C383.063 576.55 383.103 576.56 383.143 576.58C383.633 576.78 384.113 576.97 384.603 577.16C384.693 577.19 384.783 577.23 384.873 577.26C385.183 577.39 385.503 577.52 385.813 577.63C386.433 577.87 387.043 578.1 387.663 578.32C387.993 578.45 388.333 578.58 388.673 578.69C388.703 578.7 388.743 578.71 388.773 578.73C389.433 578.97 390.103 579.2 390.763 579.43C391.203 579.58 391.653 579.73 392.103 579.87C392.483 580.01 392.873 580.14 393.263 580.25C394.003 580.5 394.753 580.74 395.503 580.96C395.803 581.06 396.113 581.15 396.423 581.23C396.863 581.37 397.293 581.5 397.743 581.62C397.773 581.63 397.813 581.64 397.843 581.65C398.503 581.85 399.173 582.03 399.843 582.21L400.083 582.27C400.213 582.31 400.353 582.34 400.483 582.38C401.093 582.55 401.703 582.71 402.313 582.85C402.423 582.88 402.523 582.9 402.633 582.93C403.223 583.09 403.813 583.23 404.413 583.37C404.983 583.51 405.553 583.64 406.123 583.76C406.433 583.84 406.733 583.91 407.043 583.96C407.113 583.98 407.183 583.99 407.253 584.01C407.913 584.16 408.573 584.3 409.243 584.43C409.593 584.5 409.943 584.57 410.293 584.63C410.383 584.65 410.473 584.67 410.563 584.68C411.213 584.82 411.863 584.94 412.513 585.05C412.773 585.1 413.043 585.15 413.313 585.19C414.033 585.32 414.753 585.44 415.483 585.55C415.723 585.59 415.953 585.63 416.193 585.66C416.853 585.76 417.503 585.86 418.163 585.95C418.243 585.96 418.333 585.97 418.413 585.98C418.773 586.03 419.143 586.08 419.503 586.13C420.123 586.21 420.743 586.28 421.363 586.35C421.513 586.37 421.663 586.39 421.823 586.41C422.273 586.46 422.723 586.51 423.183 586.55C423.733 586.62 424.293 586.67 424.853 586.72C424.923 586.73 425.003 586.73 425.083 586.74C426.133 586.84 427.183 586.92 428.243 586.99C429.203 587.06 430.163 587.12 431.133 587.16C431.223 587.17 431.323 587.18 431.413 587.18H431.503C431.953 587.2 432.393 587.22 432.843 587.24C432.963 587.24 433.073 587.25 433.193 587.25C433.883 587.28 434.573 587.3 435.263 587.31C436.363 587.34 437.473 587.35 438.573 587.35C439.673 587.35 440.783 587.35 441.873 587.31C442.573 587.3 443.263 587.28 443.953 587.25C444.073 587.25 444.193 587.24 444.313 587.24C444.753 587.22 445.203 587.2 445.643 587.18H445.733C445.823 587.18 445.923 587.17 446.013 587.16C446.983 587.12 447.943 587.06 448.903 586.99C449.963 586.92 451.013 586.84 452.063 586.74C452.143 586.73 452.213 586.73 452.293 586.72C452.853 586.67 453.413 586.62 453.963 586.55C454.413 586.51 454.873 586.46 455.323 586.41C455.473 586.39 455.633 586.37 455.783 586.35C456.403 586.28 457.023 586.21 457.643 586.13C458.003 586.08 458.373 586.03 458.733 585.98C459.693 585.85 460.643 585.71 461.593 585.56C462.373 585.44 463.143 585.31 463.913 585.17C464.153 585.14 464.393 585.1 464.633 585.05C465.373 584.92 466.113 584.78 466.853 584.63C467.203 584.57 467.553 584.5 467.903 584.43C468.583 584.3 469.273 584.15 469.953 584C470.343 583.92 470.733 583.83 471.123 583.74C471.653 583.63 472.183 583.5 472.713 583.37C473.083 583.29 473.453 583.2 473.823 583.11C474.013 583.06 474.213 583.01 474.403 582.96C474.423 582.95 474.453 582.95 474.473 582.94C474.973 582.83 475.463 582.7 475.963 582.56C476.033 582.54 476.113 582.52 476.183 582.5C476.513 582.43 476.843 582.34 477.163 582.24C477.893 582.05 478.613 581.85 479.343 581.64C479.733 581.53 480.123 581.42 480.503 581.3C480.983 581.16 481.463 581.02 481.933 580.87C482.273 580.77 482.613 580.66 482.943 580.56C483.183 580.48 483.423 580.4 483.663 580.32C483.733 580.3 483.793 580.28 483.863 580.26C484.393 580.1 484.903 579.93 485.423 579.75C485.443 579.74 485.453 579.74 485.473 579.73C485.703 579.66 485.933 579.58 486.163 579.5C486.983 579.22 487.803 578.94 488.613 578.64C488.863 578.56 489.103 578.47 489.353 578.37C490.013 578.13 490.673 577.89 491.323 577.63C491.573 577.54 491.823 577.44 492.073 577.34C492.133 577.32 492.203 577.29 492.263 577.26C492.903 577.02 493.543 576.77 494.173 576.51C494.213 576.5 494.243 576.48 494.283 576.47C494.663 576.31 495.053 576.15 495.423 575.99C495.433 575.99 495.443 575.98 495.453 575.98C496.043 575.74 496.623 575.49 497.203 575.23C497.483 575.12 497.753 575 498.033 574.87C498.743 574.56 499.443 574.25 500.143 573.92C500.963 573.55 501.783 573.16 502.593 572.77C503.063 572.54 503.533 572.31 504.003 572.08C504.563 571.8 505.123 571.52 505.673 571.24C505.693 571.23 505.703 571.22 505.723 571.21C506.523 570.81 507.313 570.39 508.093 569.97C508.553 569.72 509.013 569.47 509.463 569.22C510.063 568.9 510.653 568.57 511.243 568.24C511.503 568.09 511.773 567.94 512.033 567.78C512.703 567.4 513.363 567.01 514.023 566.62C514.193 566.52 514.353 566.42 514.513 566.32C515.223 565.9 515.923 565.47 516.613 565.04C516.823 564.91 517.033 564.78 517.243 564.63C517.953 564.19 518.653 563.74 519.353 563.28C520.083 562.8 520.813 562.32 521.533 561.82C521.643 561.75 521.763 561.67 521.873 561.59C521.953 561.54 522.033 561.48 522.113 561.43C522.893 560.89 523.663 560.35 524.433 559.8C525.263 559.2 526.093 558.6 526.913 557.98C527.453 557.58 527.983 557.17 528.513 556.76C529.003 556.39 529.483 556.01 529.963 555.63C530.683 555.06 531.393 554.49 532.103 553.9C533.183 553.02 534.253 552.12 535.303 551.2C535.813 550.76 536.323 550.32 536.823 549.87C537.563 549.21 538.293 548.54 539.023 547.86C539.323 547.59 539.613 547.31 539.913 547.02C540.523 546.45 541.133 545.86 541.733 545.27C542.493 544.52 543.253 543.77 544.003 543H544.013C544.293 542.71 544.563 542.43 544.843 542.14C545.113 541.86 545.383 541.58 545.653 541.29C546.123 540.79 546.593 540.29 547.053 539.79C547.483 539.33 547.903 538.87 548.313 538.4C548.583 538.1 548.863 537.8 549.123 537.5C549.393 537.2 549.653 536.9 549.913 536.6C550.293 536.16 550.673 535.72 551.053 535.28C551.323 534.95 551.603 534.62 551.883 534.28C551.983 534.18 552.073 534.07 552.163 533.95C552.213 533.89 552.273 533.82 552.323 533.76C552.833 533.15 553.333 532.53 553.823 531.91C553.823 531.91 553.829 531.903 553.843 531.89C553.993 531.71 554.133 531.53 554.273 531.34C554.773 530.72 555.253 530.1 555.733 529.47C555.763 529.43 555.803 529.38 555.833 529.34C555.943 529.21 556.053 529.07 556.153 528.92C556.273 528.76 556.403 528.6 556.513 528.43C556.853 527.98 557.193 527.53 557.523 527.08C557.793 526.73 558.053 526.37 558.303 526.01C558.323 525.98 558.353 525.94 558.373 525.91C558.693 525.47 559.003 525.04 559.313 524.59C559.353 524.54 559.383 524.49 559.413 524.44C559.733 524.01 560.033 523.57 560.333 523.13C560.333 523.11 560.353 523.08 560.373 523.06C560.573 522.78 560.773 522.5 560.953 522.21C561.293 521.71 561.633 521.21 561.963 520.7C562.263 520.25 562.553 519.8 562.843 519.34C563.083 518.97 563.323 518.6 563.553 518.22C563.563 518.21 563.563 518.2 563.573 518.19C563.883 517.7 564.193 517.21 564.493 516.71C564.533 516.65 564.563 516.59 564.603 516.53C564.763 516.27 564.923 516 565.083 515.73C565.513 515.03 565.923 514.33 566.333 513.62C566.443 513.43 566.553 513.23 566.663 513.04C566.683 513 566.703 512.97 566.723 512.93C567.073 512.33 567.413 511.72 567.743 511.11C567.773 511.06 567.803 511 567.833 510.95C568.113 510.47 568.373 509.98 568.633 509.48C568.793 509.19 568.943 508.9 569.093 508.61C569.333 508.18 569.553 507.75 569.773 507.32C569.933 507.02 570.093 506.72 570.243 506.41C570.403 506.1 570.553 505.8 570.703 505.49C570.883 505.13 571.063 504.77 571.233 504.4C571.363 504.16 571.483 503.91 571.593 503.66C571.713 503.42 571.823 503.18 571.943 502.93C572.193 502.42 572.433 501.9 572.663 501.38C572.843 501.01 573.013 500.64 573.173 500.26C573.413 499.74 573.643 499.22 573.873 498.7C573.893 498.66 573.903 498.62 573.923 498.58C574.103 498.16 574.293 497.72 574.473 497.29C574.523 497.17 574.573 497.06 574.623 496.94C574.793 496.53 574.963 496.12 575.133 495.71C575.143 495.7 575.143 495.68 575.153 495.67C575.413 495.03 575.673 494.39 575.913 493.74C575.923 493.71 575.943 493.67 575.953 493.64C576.053 493.42 576.133 493.21 576.213 492.99C576.223 492.97 576.223 492.95 576.233 492.93C576.463 492.35 576.683 491.77 576.893 491.18C577.083 490.7 577.253 490.23 577.423 489.75C577.583 489.32 577.733 488.89 577.873 488.46C578.103 487.84 578.313 487.21 578.523 486.57C578.583 486.41 578.633 486.25 578.683 486.09C578.933 485.34 579.183 484.59 579.403 483.83C579.433 483.74 579.463 483.64 579.493 483.55C579.533 483.46 579.563 483.37 579.583 483.27C579.873 482.34 580.153 481.41 580.413 480.48C580.703 479.47 580.983 478.45 581.253 477.43C581.793 475.39 582.283 473.33 582.733 471.26C583.543 467.55 586.773 464.87 590.573 464.87H860.233C860.783 456.14 861.053 447.33 861.053 438.46C861.053 429.59 860.783 420.78 860.233 412.04ZM542.033 464.87C530.783 511.57 488.733 546.26 438.573 546.26C388.413 546.26 346.363 511.57 335.103 464.87C333.163 456.84 332.133 448.45 332.133 439.83C332.133 430.22 333.403 420.9 335.803 412.04C348.023 366.73 389.403 333.39 438.573 333.39C487.743 333.39 529.113 366.73 541.333 412.04C543.733 420.9 545.003 430.22 545.003 439.83C545.003 448.45 543.973 456.84 542.033 464.87Z" fill="black"/>
<defs>
<radialGradient id="paint0_radial_389_2457" cx="0" cy="0" r="1" gradientUnits="userSpaceOnUse" gradientTransform="translate(438.573 439.83) scale(70.96 70.96)">
<stop stop-color="white"/>
<stop offset="0.59" stop-color="white"/>
<stop offset="0.68" stop-color="white"/>
<stop offset="0.69" stop-color="#FDFDFD"/>
<stop offset="0.7" stop-color="#CCCCCC"/>
<stop offset="0.74" stop-color="#CDCDCD" stop-opacity="0.9604"/>
<stop offset="0.78" stop-color="#D0D0D0" stop-opacity="0.8281"/>
<stop offset="0.83" stop-color="#D6D6D6" stop-opacity="0.64"/>
<stop offset="0.87" stop-color="#DEDEDE" stop-opacity="0.4225"/>
<stop offset="0.92" stop-color="#E8E8E8" stop-opacity="0.2025"/>
<stop offset="0.96" stop-color="#F4F4F4" stop-opacity="0.0441"/>
<stop offset="1" stop-color="white" stop-opacity="0"/>
</radialGradient>
</defs>
</svg>
